# Blender 3.3.1
# www.blender.org
o Plane
v 0.000000 0.000000 4.000000
v 0.000000 0.000000 6.000000
v 2.000000 0.000000 6.000000
v 4.000000 0.000000 6.000000
v 2.000000 0.000000 4.000000
v 4.000000 0.000000 4.000000
v 6.000000 0.000000 4.000000
v 8.000000 0.000000 4.000000
v 2.000000 0.000000 8.000000
v 4.000000 0.000000 8.000000
v 6.000000 0.000000 6.000000
v 8.000000 0.000000 6.000000
v 0.000000 0.000000 10.000000
v 2.000000 0.000000 10.000000
v 0.000000 0.000000 8.000000
v 4.000000 0.000000 10.000000
v 6.000000 0.000000 8.000000
v 6.000000 0.000000 10.000000
v 8.000000 0.000000 10.000000
v 8.000000 0.000000 8.000000
vn -0.0000 1.0000 -0.0000
vt 0.074382 0.844703
vt 0.074382 0.757604
vt 0.074382 0.844703
vt 0.074382 0.757604
vt 0.161481 0.757604
vt 0.161481 0.844703
vt 0.074382 0.844703
vt 0.074382 0.757604
vt 0.161481 0.757604
vt 0.161481 0.844703
vt 0.074382 0.844703
vt 0.161481 0.844703
vt 0.074382 0.844703
vt 0.161481 0.844703
vt 0.074382 0.844703
vt 0.161481 0.844703
vt 0.074382 0.844703
vt 0.161481 0.844703
vt 0.074382 0.757604
vt 0.161481 0.757604
vt 0.161481 0.844703
vt 0.074382 0.844703
vt 0.074382 0.757604
vt 0.161481 0.757604
vt 0.161481 0.844703
vt 0.074382 0.844703
vt 0.074382 0.757604
vt 0.161481 0.757604
vt 0.161481 0.844703
vt 0.074382 0.844703
vt 0.161481 0.757604
vt 0.161481 0.844703
vt 0.074382 0.757604
vt 0.074382 0.757604
vt 0.161481 0.757604
vt 0.074382 0.757604
vt 0.074382 0.844703
vt 0.074382 0.757604
vt 0.161481 0.757604
vt 0.074382 0.757604
vt 0.161481 0.757604
vt 0.161481 0.844703
vt 0.074382 0.844703
vt 0.074382 0.757604
vt 0.161481 0.757604
vt 0.161481 0.757604
vt 0.161481 0.757604
vt 0.161481 0.844703
s 0
f 3/5/1 1/1/1 2/2/1
f 4/9/1 5/13/1 3/4/1
f 11/28/1 6/15/1 4/8/1
f 12/31/1 7/17/1 11/27/1
f 9/20/1 2/3/1 15/36/1
f 10/24/1 3/7/1 9/19/1
f 17/41/1 4/11/1 10/23/1
f 20/47/1 11/30/1 17/40/1
f 14/35/1 15/37/1 13/33/1
f 16/39/1 9/22/1 14/34/1
f 18/45/1 10/26/1 16/38/1
f 19/46/1 17/43/1 18/44/1
f 3/5/1 5/12/1 1/1/1
f 4/9/1 6/14/1 5/13/1
f 11/28/1 7/16/1 6/15/1
f 12/31/1 8/18/1 7/17/1
f 9/20/1 3/6/1 2/3/1
f 10/24/1 4/10/1 3/7/1
f 17/41/1 11/29/1 4/11/1
f 20/47/1 12/32/1 11/30/1
f 14/35/1 9/21/1 15/37/1
f 16/39/1 10/25/1 9/22/1
f 18/45/1 17/42/1 10/26/1
f 19/46/1 20/48/1 17/43/1
o Plane.001
v 0.000000 0.000000 4.000000
v 8.000000 0.000000 4.000000
v 0.000000 0.000000 10.000000
v 8.000000 0.000000 10.000000
v 0.000000 3.000000 4.000000
v 8.000000 3.000000 4.000000
v 0.000000 3.000000 10.000000
v 8.000000 3.000000 10.000000
v 0.000000 5.000000 7.000000
v 8.000000 5.000000 7.000000
v 8.000000 0.000000 6.000000
v 8.000000 0.000000 8.000000
v 8.000000 3.000000 6.000000
v 8.000000 3.000000 8.000000
v 8.000000 4.335163 6.002744
v 8.000000 4.332753 8.000871
v 8.000000 4.332753 8.000871
v 8.000000 5.000000 7.000000
v 8.000000 4.335163 6.002744
v 8.000000 0.000000 6.000000
v 8.000000 0.000000 8.000000
v 8.000000 3.000000 6.000000
v 8.000000 3.000000 8.000000
v 7.250119 4.332753 8.000871
v 7.250119 5.000000 7.000000
v 7.250119 4.335163 6.002744
v 7.250119 0.660561 6.262911
v 7.250119 0.660561 7.737089
v 7.250119 1.733959 6.262911
v 7.250119 1.733959 7.737089
v 7.250119 0.000000 6.000000
v 7.250119 0.000000 8.000000
v 7.250119 3.000000 8.000000
v 7.250119 3.000000 6.000000
v 7.861099 0.660561 6.262911
v 7.861099 0.660561 7.737089
v 7.861099 1.733959 7.737089
v 7.861099 1.733959 6.262911
vn -1.0000 -0.0000 -0.0000
vn 1.0000 -0.0000 -0.0000
vn -0.0000 -0.0000 1.0000
vn -0.0000 -0.8321 -0.5547
vn -0.0000 -0.0000 -1.0000
vn -0.0000 -0.8321 0.5547
vn -0.0000 1.0000 -0.0000
vn -0.0000 -0.0007 1.0000
vn -0.0000 -1.0000 -0.0000
vn -0.0000 0.0021 -1.0000
vn -0.0000 -0.8320 0.5547
vt 0.423827 0.847835
vt 0.677112 0.473712
vt 0.677112 0.005022
vt 0.429303 0.847323
vt 0.423827 0.496317
vt 0.756120 0.009800
vt 0.429303 0.501958
vt 0.756120 0.467784
vt 0.599586 0.847835
vt 0.762378 0.473712
vt 0.090645 0.487664
vt 0.559557 0.595756
vt 0.598294 0.847323
vt 0.762378 0.005022
vt 0.090645 0.018973
vt 0.679485 0.009800
vt 0.599586 0.496317
vt 0.663447 0.051753
vt 0.612638 0.738595
vt 0.663447 0.467779
vt 0.679485 0.467784
vt 0.598294 0.501958
vt 0.716759 0.672075
vt 0.426397 0.051753
vt 0.301293 0.487664
vt 0.426397 0.467779
vt 0.301293 0.018973
vt 0.429303 0.732201
vt 0.000000 0.000000
vt 0.000000 0.000000
vt 0.429303 0.617080
vt 0.560665 0.712457
vt 0.598294 0.732201
vt 0.614200 0.613953
vt 0.598294 0.617080
vt 0.482759 0.713357
vt 0.231270 0.018973
vt 0.531140 0.612966
vt 0.505482 0.467779
vt 0.220013 0.558276
vt 0.505482 0.467779
vt 0.426397 0.467779
vt 0.301293 0.018973
vt 0.171545 0.623279
vt 0.231270 0.018973
vt 0.000000 0.000000
vt 0.429303 0.732201
vt 0.033370 0.623279
vt 0.429303 0.617080
vt 0.035778 0.558276
vt 0.000000 0.000000
vt 0.598294 0.732201
vt 0.128989 0.623279
vt 0.598294 0.617080
vt 0.163343 0.558276
vt 0.215729 0.638232
vt 0.220013 0.590162
vt 0.505482 0.467779
vt 0.246718 0.585139
vt 0.426397 0.467779
vt 0.301293 0.018973
vt 0.215841 0.532238
vt 0.171545 0.599378
vt 0.231270 0.018973
vt 0.121242 0.718178
vt 0.045181 0.546039
vt 0.112882 0.698003
vt 0.118638 0.694727
vt 0.045181 0.624240
vt 0.121242 0.652915
vt 0.156650 0.698003
vt 0.132555 0.648378
vt 0.095033 0.546039
vt 0.132555 0.609435
vt 0.095033 0.624240
vt 0.150894 0.694727
vt 0.033370 0.599378
vt 0.000000 0.000000
vt 0.014503 0.532093
vt 0.035778 0.590162
vt 0.000000 0.000000
vt 0.014503 0.638186
vt 0.163343 0.590162
vt 0.153832 0.638186
vt 0.128989 0.599378
vt 0.153832 0.532093
vt 0.053655 0.716275
vt 0.112882 0.673091
vt 0.148290 0.718178
vt 0.053655 0.652537
vt 0.118638 0.676367
vt 0.148290 0.652915
vt 0.148695 0.609435
vt 0.110661 0.652537
vt 0.150894 0.676367
vt 0.148695 0.648378
vt 0.110661 0.716275
vt 0.156650 0.673091
s 0
f 33/81/2 22/52/2 31/76/2
f 21/49/3 27/65/3 23/53/3
f 26/62/4 21/50/4 22/51/4
f 30/74/5 36/87/5 27/66/5
f 28/69/6 23/54/6 27/64/6
f 26/63/7 35/85/7 29/73/7
f 27/65/3 25/57/3 29/71/3
f 28/67/2 36/86/2 34/82/2
f 28/70/2 32/79/2 24/55/2
f 33/81/8 40/95/8 42/100/8
f 30/74/8 37/89/8 38/90/8
f 34/83/8 37/89/8 43/102/8
f 33/80/2 35/84/2 26/60/2
f 40/96/6 54/133/6 42/101/6
f 37/88/9 53/131/9 43/103/9
f 37/89/5 45/108/5 38/90/5
f 35/85/8 42/100/8 39/93/8
f 31/77/8 41/99/8 40/94/8
f 35/85/8 38/91/8 39/93/8
f 32/79/8 43/102/8 41/97/8
f 49/120/10 57/141/10 50/122/10
f 45/107/2 46/110/2 44/104/2
f 46/110/2 53/132/2 44/104/2
f 42/101/11 46/111/11 39/92/11
f 38/91/7 46/112/7 39/93/7
f 43/103/4 52/128/4 41/98/4
f 41/99/10 51/126/10 40/94/10
f 47/114/2 52/130/2 48/117/2
f 50/123/2 52/130/2 53/132/2
f 49/121/2 51/127/2 47/114/2
f 50/123/2 54/134/2 49/121/2
f 56/138/2 58/145/2 55/135/2
f 50/124/6 56/139/6 48/116/6
f 47/115/4 58/146/4 49/119/4
f 48/118/8 55/137/8 47/113/8
f 33/81/2 26/61/2 22/52/2
f 21/49/3 25/57/3 27/65/3
f 26/62/4 25/58/4 21/50/4
f 27/66/5 29/72/5 30/74/5
f 36/87/5 28/68/5 27/66/5
f 28/69/6 24/56/6 23/54/6
f 29/73/7 25/59/7 26/63/7
f 35/85/7 30/75/7 29/73/7
f 28/70/2 34/83/2 32/79/2
f 33/81/8 31/76/8 40/95/8
f 30/74/8 36/87/8 37/89/8
f 34/83/8 36/87/8 37/89/8
f 40/96/6 51/125/6 54/133/6
f 37/88/9 44/105/9 53/131/9
f 37/89/5 44/106/5 45/108/5
f 35/85/8 33/81/8 42/100/8
f 31/77/8 32/78/8 41/99/8
f 35/85/8 30/75/8 38/91/8
f 32/79/8 34/83/8 43/102/8
f 49/120/10 58/144/10 57/141/10
f 46/110/2 54/134/2 53/132/2
f 42/101/11 54/133/11 46/111/11
f 38/91/12 45/109/12 46/112/12
f 43/103/4 53/131/4 52/128/4
f 41/99/10 52/129/10 51/126/10
f 47/114/2 51/127/2 52/130/2
f 50/123/2 48/117/2 52/130/2
f 49/121/2 54/134/2 51/127/2
f 50/123/2 53/132/2 54/134/2
f 56/138/2 57/142/2 58/145/2
f 50/124/6 57/143/6 56/139/6
f 47/115/4 55/136/4 58/146/4
f 48/118/8 56/140/8 55/137/8
