# Blender 3.3.1
# www.blender.org
o Plane.001
v 0.000000 0.000000 4.000000
v 8.000000 0.000000 4.000000
v 0.000000 0.000000 10.000000
v 8.000000 0.000000 10.000000
v 0.000000 3.000000 4.000000
v 8.000000 3.000000 4.000000
v 0.000000 3.000000 10.000000
v 8.000000 3.000000 10.000000
v 0.000000 5.000000 7.000000
v 8.000000 5.000000 7.000000
v 0.000000 2.750000 10.500000
v 8.000000 2.750000 10.500000
v 0.000000 2.750000 3.500000
v 8.000000 2.750000 3.500000
v -0.250000 3.000000 4.000000
v -0.250000 3.000000 10.000000
v -0.250000 5.000000 7.000000
v -0.250000 2.750000 10.500000
v -0.250000 2.750000 3.500000
v 8.250000 3.000000 4.000000
v 8.250000 3.000000 10.000000
v 8.250000 5.000000 7.000000
v 8.250000 2.750000 10.500000
v 8.250000 2.750000 3.500000
v 0.310436 2.249271 10.000000
v 1.536460 2.249271 10.000000
v 0.310436 3.000000 10.000000
v 1.536460 3.000000 10.000000
v 0.141568 3.595497 9.106754
v 0.310436 3.611519 9.082722
v 0.933160 3.987103 8.519345
v 1.705328 3.595497 9.106754
v 1.536460 3.595497 9.106754
v 1.536460 3.611519 9.082722
v 0.310436 3.595497 9.106754
v 1.536460 2.750000 10.500000
v 0.310436 2.750000 10.500000
v 3.594497 3.000000 10.000000
v 2.368473 3.000000 10.000000
v 2.368473 2.249271 10.000000
v 3.594497 2.249271 10.000000
v 2.199605 3.595497 9.106754
v 2.368473 3.611519 9.082721
v 2.991197 3.987103 8.519345
v 3.763365 3.595497 9.106754
v 3.594497 3.595497 9.106754
v 3.594497 3.611519 9.082721
v 2.368473 3.595497 9.106754
v 3.594497 2.750000 10.500000
v 2.368473 2.750000 10.500000
v 6.399506 2.249271 10.000000
v 6.399506 3.000000 10.000000
v 7.625529 2.249271 10.000000
v 7.625529 3.000000 10.000000
v 6.399506 3.611519 9.082722
v 7.625529 3.611519 9.082722
v 7.625529 2.750000 10.500000
v 6.399506 2.750000 10.500000
v 0.000000 3.000000 10.000000
v 8.000000 3.000000 10.000000
v 0.000000 5.000000 7.000000
v 8.000000 5.000000 7.000000
v 0.000000 2.750000 10.500000
v 8.000000 2.750000 10.500000
v -0.250000 3.000000 10.000000
v -0.250000 5.000000 7.000000
v -0.250000 2.750000 10.500000
v 8.250000 3.000000 10.000000
v 8.250000 5.000000 7.000000
v 8.250000 2.750000 10.500000
v 0.310436 3.000000 10.000000
v 1.536460 3.000000 10.000000
v 1.536460 2.750000 10.500000
v 0.310436 2.750000 10.500000
v 3.594497 3.000000 10.000000
v 2.368473 3.000000 10.000000
v 3.594497 2.750000 10.500000
v 2.368473 2.750000 10.500000
v 6.399506 3.000000 10.000000
v 7.625529 3.000000 10.000000
v 7.625529 2.750000 10.500000
v 6.399506 2.750000 10.500000
vn -1.0000 -0.0000 -0.0000
vn -0.0000 -0.0000 1.0000
vn -0.0000 -0.8321 -0.5547
vn -0.0000 0.8321 0.5547
vn -0.0000 -0.8320 -0.5547
vn -0.0000 -0.8321 0.5547
vn -0.0000 0.8944 0.4472
vn -0.0000 -0.8944 0.4472
vn -0.0000 -0.8944 -0.4472
vn -0.0000 0.8321 -0.5547
vn -0.0000 0.8320 0.5547
vt 0.423827 0.847835
vt 0.004327 0.487664
vt 0.004327 0.018973
vt 0.004327 0.862481
vt 0.423827 0.496317
vt 0.761932 0.004327
vt 0.004327 0.510963
vt 0.761932 0.473017
vt 0.599586 0.847835
vt 0.055489 0.487664
vt 0.090645 0.487664
vt 0.180086 0.862481
vt 0.055489 0.018973
vt 0.090645 0.018973
vt 0.965982 0.004327
vt 0.436878 0.477648
vt 0.599586 0.496317
vt 0.675613 0.004327
vt 0.634230 0.004327
vt 0.396850 0.487664
vt 0.180086 0.510963
vt 0.675613 0.473017
vt 0.634230 0.473017
vt 0.716759 0.672075
vt 0.423827 0.004327
vt 0.301293 0.487664
vt 0.651890 0.477648
vt 0.297258 0.686722
vt 0.965982 0.215563
vt 0.301293 0.018973
vt 0.423827 0.473017
vt 0.666960 0.004327
vt 0.415174 0.487664
vt 0.666960 0.473017
vt 0.057935 0.487664
vt 0.057935 0.018973
vt 0.090645 0.502310
vt 0.436878 0.465451
vt 0.396850 0.502310
vt 0.301293 0.502310
vt 0.651890 0.465451
vt 0.415174 0.502310
vt 0.057935 0.502310
vt 0.090645 0.004327
vt 0.951336 0.004327
vt 0.634230 0.487664
vt 0.951336 0.215563
vt 0.423827 0.487664
vt 0.666960 0.487664
vt 0.057935 0.004327
vt 0.697214 0.022514
vt 0.697214 0.094342
vt 0.675613 0.022514
vt 0.961306 0.762451
vt 0.634230 0.022514
vt 0.675613 0.094342
vt 0.961306 0.690623
vt 0.634230 0.094342
vt 0.571583 0.012621
vt 0.932854 0.772344
vt 0.932088 0.762451
vt 0.530385 0.058997
vt 0.914144 0.725968
vt 0.571583 0.104236
vt 0.932854 0.680730
vt 0.571583 0.094342
vt 0.932854 0.690623
vt 0.932088 0.690623
vt 0.571583 0.022514
vt 0.932854 0.762451
vt 0.666960 0.094342
vt 0.666960 0.022514
vt 0.675613 0.214915
vt 0.949499 0.828158
vt 0.634230 0.214915
vt 0.675613 0.143087
vt 0.949499 0.899987
vt 0.634230 0.143087
vt 0.697214 0.143087
vt 0.697214 0.214915
vt 0.921047 0.909880
vt 0.571583 0.133193
vt 0.920281 0.899987
vt 0.902337 0.863503
vt 0.530385 0.179570
vt 0.921047 0.818265
vt 0.571583 0.224808
vt 0.571583 0.214915
vt 0.921047 0.828158
vt 0.920281 0.828158
vt 0.571583 0.143087
vt 0.921047 0.899987
vt 0.666960 0.214915
vt 0.666960 0.143087
vt 0.697214 0.379250
vt 0.675613 0.379250
vt 0.634230 0.379250
vt 0.697214 0.451078
vt 0.675613 0.451078
vt 0.634230 0.451078
vt 0.569897 0.379250
vt 0.569897 0.451078
vt 0.666960 0.451078
vt 0.666960 0.379250
vt 0.436878 0.477648
vt 0.634230 0.004327
vt 0.396850 0.487664
vt 0.634230 0.473017
vt 0.651890 0.477648
vt 0.423827 0.473017
vt 0.666960 0.004327
vt 0.415174 0.487664
vt 0.666960 0.473017
vt 0.436878 0.465451
vt 0.396850 0.502310
vt 0.651890 0.465451
vt 0.415174 0.502310
vt 0.634230 0.487664
vt 0.423827 0.487664
vt 0.666960 0.487664
vt 0.634230 0.022514
vt 0.634230 0.094342
vt 0.666960 0.094342
vt 0.666960 0.022514
vt 0.634230 0.214915
vt 0.634230 0.143087
vt 0.666960 0.214915
vt 0.666960 0.143087
vt 0.634230 0.379250
vt 0.634230 0.451078
vt 0.666960 0.451078
vt 0.666960 0.379250
s 0
f 8/21/1 2/4/1 4/7/1
f 7/17/1 1/1/1 3/5/1
f 6/13/2 1/2/2 2/3/2
f 41/80/2 40/79/2 3/6/2
f 43/83/3 44/84/3 47/90/3
f 42/82/4 32/64/4 39/78/4
f 38/74/3 48/92/3 46/89/3
f 43/83/5 46/89/5 48/92/5
f 30/61/3 31/63/3 34/68/3
f 28/57/3 35/70/3 33/67/3
f 30/61/5 33/67/5 35/70/5
f 6/14/6 9/26/6 5/11/6
f 7/17/1 9/24/1 5/9/1
f 8/21/1 10/28/1 6/12/1
f 50/94/7 28/58/7 36/71/7
f 58/104/7 38/75/7 49/93/7
f 57/103/7 8/23/7 54/100/7
f 37/72/7 7/19/7 11/32/7
f 13/35/8 6/14/8 5/11/8
f 5/11/8 19/43/8 13/35/8
f 17/40/6 5/11/6 9/26/6
f 16/38/3 9/27/3 7/16/3
f 18/42/9 7/20/9 11/33/9
f 20/44/8 14/36/8 24/50/8
f 22/47/10 6/15/10 10/29/10
f 21/46/4 10/31/4 8/23/4
f 21/46/7 12/34/7 23/49/7
f 72/122/9 78/128/9 73/123/9
f 75/125/9 82/132/9 77/127/9
f 60/108/9 81/131/9 80/130/9
f 59/106/9 74/124/9 63/111/9
f 61/109/4 65/114/4 59/105/4
f 59/107/7 67/117/7 63/112/7
f 62/110/3 68/118/3 60/108/3
f 64/113/9 68/118/9 70/120/9
f 8/21/1 6/12/1 2/4/1
f 7/17/1 5/9/1 1/1/1
f 6/13/2 5/10/2 1/2/2
f 4/8/2 8/22/2 54/99/2
f 4/8/2 54/99/2 53/98/2
f 27/53/2 7/18/2 3/6/2
f 25/51/2 27/53/2 3/6/2
f 3/6/2 4/8/2 53/98/2
f 51/95/2 52/96/2 38/73/2
f 3/6/2 53/98/2 51/95/2
f 26/52/2 25/51/2 3/6/2
f 39/76/2 28/56/2 26/52/2
f 40/79/2 39/76/2 26/52/2
f 51/95/2 38/73/2 41/80/2
f 40/79/2 26/52/2 3/6/2
f 3/6/2 51/95/2 41/80/2
f 43/83/5 48/92/5 42/81/5
f 45/86/5 46/89/5 47/90/5
f 43/83/3 42/81/3 44/84/3
f 44/84/3 45/86/3 47/90/3
f 45/87/11 46/88/11 38/75/11
f 38/75/4 52/97/4 55/101/4
f 56/102/4 54/100/4 8/23/4
f 45/87/4 38/75/4 55/101/4
f 56/102/4 8/23/4 10/31/4
f 44/85/4 45/87/4 55/101/4
f 55/101/4 56/102/4 10/31/4
f 7/19/4 27/55/4 35/69/4
f 7/19/11 35/69/11 29/59/11
f 55/101/4 10/31/4 9/25/4
f 44/85/11 55/101/11 9/25/11
f 9/25/4 7/19/4 29/59/4
f 9/25/4 29/59/4 31/62/4
f 42/82/4 44/85/4 9/25/4
f 39/78/4 48/91/4 42/82/4
f 33/66/4 28/58/4 39/78/4
f 9/25/4 31/62/4 32/64/4
f 32/64/11 33/66/11 39/78/11
f 42/82/4 9/25/4 32/64/4
f 38/74/3 39/77/3 48/92/3
f 43/83/3 47/90/3 46/89/3
f 30/61/5 35/70/5 29/60/5
f 32/65/5 33/67/5 34/68/5
f 30/61/3 29/60/3 31/63/3
f 31/63/3 32/65/3 34/68/3
f 28/57/3 27/54/3 35/70/3
f 30/61/5 34/68/5 33/67/5
f 6/14/6 10/30/6 9/26/6
f 50/94/7 39/78/7 28/58/7
f 58/104/7 52/97/7 38/75/7
f 57/103/7 12/34/7 8/23/7
f 37/72/7 27/55/7 7/19/7
f 13/35/8 14/36/8 6/14/8
f 5/11/8 15/37/8 19/43/8
f 17/40/6 15/37/6 5/11/6
f 16/38/3 17/41/3 9/27/3
f 18/42/9 16/39/9 7/20/9
f 20/44/8 6/14/8 14/36/8
f 22/47/10 20/45/10 6/15/10
f 21/46/4 22/48/4 10/31/4
f 21/46/7 8/23/7 12/34/7
f 72/122/9 76/126/9 78/128/9
f 75/125/9 79/129/9 82/132/9
f 60/108/9 64/113/9 81/131/9
f 59/106/9 71/121/9 74/124/9
f 61/109/4 66/116/4 65/114/4
f 59/107/7 65/115/7 67/117/7
f 62/110/3 69/119/3 68/118/3
f 64/113/9 60/108/9 68/118/9
o Cube.003
v 0.141568 3.595497 10.192789
v 0.141568 3.595497 8.455278
v 1.705328 3.595497 10.192789
v 1.705328 3.595497 8.455278
v 0.933160 4.187103 9.730437
v 0.933160 4.187103 7.992927
v 0.310436 2.249271 10.005157
v 0.310436 3.611519 10.005157
v 0.310436 2.249271 8.642909
v 0.310436 3.611519 8.642909
v 1.536460 2.249271 10.005157
v 1.536460 3.611519 10.005157
v 1.536460 2.249271 8.642909
v 1.536460 3.611519 8.642909
vn 0.5986 -0.8010 -0.0000
vn -0.6082 -0.7938 -0.0000
vn -0.0000 0.6158 0.7879
vn -0.0000 1.0000 -0.0000
vn -1.0000 -0.0000 -0.0000
vn -0.0000 -0.0000 -1.0000
vn 1.0000 -0.0000 -0.0000
vn -0.0000 -0.0000 1.0000
vn -0.0000 -1.0000 -0.0000
vt 0.725412 0.809611
vt 0.985996 0.315831
vt 0.862200 0.327017
vt 0.992813 0.818265
vt 0.725412 0.707817
vt 0.862200 0.225223
vt 0.817027 0.809611
vt 0.985996 0.224216
vt 0.770586 0.327017
vt 0.992813 0.909880
vt 0.817027 0.707817
vt 0.770586 0.225223
vt 0.951336 0.269455
vt 0.771789 0.782524
vt 0.958153 0.864641
vt 0.771789 0.680730
vt 0.905490 0.680730
vt 0.870854 0.181252
vt 0.084809 0.950944
vt 0.905490 0.760539
vt 0.870854 0.261061
vt 0.377740 0.954307
vt 0.664600 0.856488
vt 0.084809 0.871135
vt 0.825681 0.680730
vt 0.825681 0.760539
vt 0.664600 0.936297
vt 0.377740 0.874497
vt 0.942682 0.181252
vt 0.305912 0.786034
vt 0.156637 0.950944
vt 0.305912 0.865843
vt 0.942682 0.261061
vt 0.305912 0.954307
vt 0.385721 0.786034
vt 0.592772 0.856488
vt 0.156637 0.871135
vt 0.305912 0.874497
vt 0.592772 0.936297
vt 0.385721 0.865843
s 0
f 84/137/12 87/146/12 83/133/12
f 87/146/13 86/143/13 85/139/13
f 87/145/14 83/134/14 85/140/14
f 88/147/14 84/136/14 86/142/14
f 85/141/15 84/138/15 83/135/15
f 90/152/16 91/157/16 89/149/16
f 92/159/17 95/168/17 91/155/17
f 96/172/18 93/162/18 95/167/18
f 94/165/19 89/150/19 93/161/19
f 95/169/20 89/151/20 91/156/20
f 92/160/15 94/166/15 96/170/15
f 84/137/12 88/148/12 87/146/12
f 87/146/13 88/148/13 86/143/13
f 85/141/15 86/144/15 84/138/15
f 90/152/16 92/158/16 91/157/16
f 92/159/17 96/171/17 95/168/17
f 96/172/18 94/164/18 93/162/18
f 94/165/19 90/153/19 89/150/19
f 95/169/20 93/163/20 89/151/20
f 92/160/15 90/154/15 94/166/15
o Cube.002
v 2.199605 3.595497 10.192789
v 2.199605 3.595497 8.455278
v 3.763365 3.595497 10.192789
v 3.763365 3.595497 8.455278
v 2.991197 4.187103 9.730437
v 2.991197 4.187103 7.992927
v 2.368473 2.249271 10.005157
v 2.368473 3.611519 10.005157
v 2.368473 2.249271 8.642909
v 2.368473 3.611519 8.642909
v 3.594497 2.249271 10.005157
v 3.594497 3.611519 10.005157
v 3.594497 2.249271 8.642909
v 3.594497 3.611519 8.642909
vn 0.5986 -0.8010 -0.0000
vn -0.6082 -0.7938 -0.0000
vn -0.0000 0.6158 0.7879
vn -0.0000 1.0000 -0.0000
vn -1.0000 -0.0000 -0.0000
vn -0.0000 -0.0000 -1.0000
vn 1.0000 -0.0000 -0.0000
vn -0.0000 -0.0000 1.0000
vn -0.0000 -1.0000 -0.0000
vt 0.305912 0.777381
vt 0.974190 0.427285
vt 0.862200 0.106121
vt 0.707913 0.856488
vt 0.305912 0.675586
vt 0.862200 0.004327
vt 0.397527 0.777381
vt 0.974190 0.335670
vt 0.770586 0.106121
vt 0.707913 0.948103
vt 0.397527 0.675586
vt 0.770586 0.004327
vt 0.939530 0.380909
vt 0.352288 0.750293
vt 0.673254 0.902865
vt 0.352288 0.648499
vt 0.893684 0.818265
vt 0.004327 0.871135
vt 0.870854 0.172599
vt 0.893684 0.898074
vt 0.004327 0.950944
vt 0.942682 0.084136
vt 0.237118 0.871135
vt 0.870854 0.092790
vt 0.813875 0.818265
vt 0.813875 0.898074
vt 0.237118 0.950944
vt 0.942682 0.004327
vt 0.076155 0.871135
vt 0.423827 0.856488
vt 0.942682 0.172599
vt 0.423827 0.936297
vt 0.076155 0.950944
vt 0.870854 0.084136
vt 0.503636 0.856488
vt 0.165290 0.871135
vt 0.942682 0.092790
vt 0.870854 0.004327
vt 0.165290 0.950944
vt 0.503636 0.936297
s 0
f 98/177/21 101/186/21 97/173/21
f 101/186/22 100/183/22 99/179/22
f 101/185/23 97/174/23 99/180/23
f 102/187/23 98/176/23 100/182/23
f 99/181/24 98/178/24 97/175/24
f 104/192/25 105/197/25 103/189/25
f 106/199/26 109/208/26 105/195/26
f 110/212/27 107/202/27 109/207/27
f 108/205/28 103/190/28 107/201/28
f 109/209/29 103/191/29 105/196/29
f 106/200/24 108/206/24 110/210/24
f 98/177/21 102/188/21 101/186/21
f 101/186/22 102/188/22 100/183/22
f 99/181/24 100/184/24 98/178/24
f 104/192/25 106/198/25 105/197/25
f 106/199/26 110/211/26 109/208/26
f 110/212/27 108/204/27 107/202/27
f 108/205/28 104/193/28 103/190/28
f 109/209/29 107/203/29 103/191/29
f 106/200/24 104/194/24 108/206/24
o Cube.005
v 6.230638 3.595497 10.192789
v 6.230638 3.595497 8.455278
v 7.794397 3.595497 10.192789
v 7.794397 3.595497 8.455278
v 7.022229 4.187103 9.730437
v 7.022229 4.187103 7.992927
v 6.399506 2.249271 10.005157
v 6.399506 3.611519 10.005157
v 6.399506 2.249271 8.642909
v 6.399506 3.611519 8.642909
v 7.625529 2.249271 10.005157
v 7.625529 3.611519 10.005157
v 7.625529 2.249271 8.642909
v 7.625529 3.611519 8.642909
vn 0.5986 -0.8010 -0.0000
vn -0.6082 -0.7938 -0.0000
vn -0.0000 0.6158 0.7879
vn -0.0000 1.0000 -0.0000
vn -1.0000 -0.0000 -0.0000
vn -0.0000 -0.0000 -1.0000
vn 1.0000 -0.0000 -0.0000
vn -0.0000 -0.0000 1.0000
vn -0.0000 -1.0000 -0.0000
vt 0.305912 0.639846
vt 0.280432 0.962749
vt 0.862201 0.216569
vt 0.995673 0.496317
vt 0.305912 0.538052
vt 0.862201 0.114775
vt 0.397527 0.639846
vt 0.280432 0.871135
vt 0.770586 0.216569
vt 0.995673 0.587932
vt 0.397527 0.538052
vt 0.770586 0.114775
vt 0.245772 0.916373
vt 0.352288 0.612759
vt 0.961013 0.542694
vt 0.352288 0.510964
vt 0.850395 0.335670
vt 0.859048 0.335670
vt 0.880531 0.664589
vt 0.850395 0.415479
vt 0.859048 0.415479
vt 0.952360 0.576126
vt 0.584118 0.856488
vt 0.880531 0.584780
vt 0.770586 0.335670
vt 0.770586 0.415479
vt 0.584118 0.936297
vt 0.952360 0.496317
vt 0.930877 0.335670
vt 0.725412 0.818265
vt 0.952360 0.664589
vt 0.725412 0.898074
vt 0.930877 0.415479
vt 0.880531 0.576126
vt 0.805222 0.818265
vt 0.512290 0.856488
vt 0.952360 0.584780
vt 0.880531 0.496317
vt 0.512290 0.936297
vt 0.805222 0.898074
s 0
f 112/217/30 115/226/30 111/213/30
f 115/226/31 114/223/31 113/219/31
f 115/225/32 111/214/32 113/220/32
f 116/227/32 112/216/32 114/222/32
f 113/221/33 112/218/33 111/215/33
f 118/232/34 119/237/34 117/229/34
f 120/239/35 123/248/35 119/235/35
f 124/252/36 121/242/36 123/247/36
f 122/245/37 117/230/37 121/241/37
f 123/249/38 117/231/38 119/236/38
f 120/240/33 122/246/33 124/250/33
f 112/217/30 116/228/30 115/226/30
f 115/226/31 116/228/31 114/223/31
f 113/221/33 114/224/33 112/218/33
f 118/232/34 120/238/34 119/237/34
f 120/239/35 124/251/35 123/248/35
f 124/252/36 122/244/36 121/242/36
f 122/245/37 118/233/37 117/230/37
f 123/249/38 121/243/38 117/231/38
f 120/240/33 118/234/33 122/246/33
o Plane.002
v 0.000000 0.000000 1.000000
v 0.000000 0.000000 4.000000
v 0.000000 0.000000 2.000000
v 0.000000 2.500000 1.000000
v 0.000000 2.500000 4.000000
v 0.000000 2.500000 2.000000
vn -1.0000 -0.0000 -0.0000
vt 0.871878 0.496317
vt 0.871878 0.672076
vt 0.871878 0.554903
vt 0.725412 0.496317
vt 0.725412 0.672076
vt 0.725412 0.554903
s 0
f 130/258/39 125/253/39 127/255/39
f 129/257/39 127/255/39 126/254/39
f 130/258/39 128/256/39 125/253/39
f 129/257/39 130/258/39 127/255/39
