# Blender 3.3.1
# www.blender.org
o bottom_floor
v 12.000000 0.000000 16.000000
v 10.000000 0.000000 22.000000
v 8.000000 0.000000 12.000000
v 10.000000 0.000000 12.000000
v 10.000000 0.000000 14.000000
v 10.000000 0.000000 18.000000
v 8.000000 0.000000 16.000000
v 10.000000 0.000000 16.000000
v 10.000000 0.000000 20.000000
v 8.000000 0.000000 18.000000
v 8.000000 0.000000 22.000000
v 6.000000 0.000000 14.000000
v 8.000000 0.000000 14.000000
v 8.000000 0.000000 20.000000
v 6.000000 0.000000 20.000000
v 6.000000 0.000000 12.000000
v 4.000000 0.000000 12.000000
v 4.000000 0.000000 16.000000
v 4.000000 0.000000 14.000000
v 6.000000 0.000000 18.000000
v 6.000000 0.000000 16.000000
v 4.000000 0.000000 18.000000
v 4.000000 0.000000 22.000000
v 4.000000 0.000000 20.000000
v 6.000000 0.000000 22.000000
v 12.000000 0.000000 14.000000
v 12.000000 0.000000 20.000000
v 12.000000 0.000000 18.000000
v 4.000000 0.000000 14.000000
v 4.000000 0.000000 20.000000
v 4.000000 0.000000 12.000000
v 2.000000 0.000000 12.000000
v 2.000000 0.000000 16.000000
v 2.000000 0.000000 14.000000
v 4.000000 0.000000 18.000000
v 4.000000 0.000000 16.000000
v 2.000000 0.000000 18.000000
v 2.000000 0.000000 22.000000
v 2.000000 0.000000 20.000000
v 4.000000 0.000000 22.000000
v 2.000000 0.000000 14.000000
v 2.000000 0.000000 20.000000
v 2.000000 0.000000 12.000000
v 0.000000 0.000000 12.000000
v 0.000000 0.000000 16.000000
v 0.000000 0.000000 14.000000
v 2.000000 0.000000 18.000000
v 2.000000 0.000000 16.000000
v 0.000000 0.000000 18.000000
v 0.000000 0.000000 22.000000
v 0.000000 0.000000 20.000000
v 2.000000 0.000000 22.000000
vn -0.0000 1.0000 -0.0000
vt 0.244820 0.119820
vt 0.302139 0.291778
vt 0.359459 0.005180
vt 0.302139 0.005180
vt 0.302139 0.062500
vt 0.302139 0.177139
vt 0.359459 0.119820
vt 0.302139 0.119820
vt 0.302139 0.234459
vt 0.359459 0.177139
vt 0.359459 0.291778
vt 0.416778 0.062500
vt 0.359459 0.062500
vt 0.359459 0.234459
vt 0.416778 0.234459
vt 0.416778 0.005180
vt 0.474098 0.005180
vt 0.474098 0.119820
vt 0.474098 0.062500
vt 0.416778 0.177139
vt 0.416778 0.119820
vt 0.474098 0.177139
vt 0.474098 0.291778
vt 0.474098 0.234459
vt 0.416778 0.291778
vt 0.244820 0.062500
vt 0.244820 0.234459
vt 0.244820 0.177139
vt 0.734458 0.062500
vt 0.734458 0.234459
vt 0.734458 0.005180
vt 0.791778 0.005180
vt 0.791778 0.119820
vt 0.791778 0.062500
vt 0.734458 0.177139
vt 0.734458 0.119820
vt 0.791778 0.177139
vt 0.791778 0.291778
vt 0.791778 0.234459
vt 0.734458 0.291778
vt 0.677139 0.541778
vt 0.677139 0.713737
vt 0.677139 0.484459
vt 0.734459 0.484459
vt 0.734459 0.599098
vt 0.734459 0.541778
vt 0.677139 0.656417
vt 0.677139 0.599098
vt 0.734459 0.656417
vt 0.734459 0.771057
vt 0.734459 0.713737
vt 0.677139 0.771057
s 0
f 1/1/1 5/5/1 8/8/1
f 28/28/1 8/8/1 6/6/1
f 5/5/1 3/3/1 13/13/1
f 8/8/1 13/13/1 7/7/1
f 6/6/1 7/7/1 10/10/1
f 9/9/1 10/10/1 14/14/1
f 2/2/1 14/14/1 11/11/1
f 13/13/1 16/16/1 12/12/1
f 7/7/1 12/12/1 21/21/1
f 10/10/1 21/21/1 20/20/1
f 14/14/1 20/20/1 15/15/1
f 11/11/1 15/15/1 25/25/1
f 12/12/1 17/17/1 19/19/1
f 21/21/1 19/19/1 18/18/1
f 20/20/1 18/18/1 22/22/1
f 15/15/1 22/22/1 24/24/1
f 25/25/1 24/24/1 23/23/1
f 27/27/1 6/6/1 9/9/1
f 29/29/1 32/32/1 34/34/1
f 36/36/1 34/34/1 33/33/1
f 35/35/1 33/33/1 37/37/1
f 30/30/1 37/37/1 39/39/1
f 40/40/1 39/39/1 38/38/1
f 41/41/1 44/44/1 46/46/1
f 48/48/1 46/46/1 45/45/1
f 47/47/1 45/45/1 49/49/1
f 42/42/1 49/49/1 51/51/1
f 52/52/1 51/51/1 50/50/1
f 1/1/1 26/26/1 5/5/1
f 28/28/1 1/1/1 8/8/1
f 5/5/1 4/4/1 3/3/1
f 8/8/1 5/5/1 13/13/1
f 6/6/1 8/8/1 7/7/1
f 9/9/1 6/6/1 10/10/1
f 2/2/1 9/9/1 14/14/1
f 13/13/1 3/3/1 16/16/1
f 7/7/1 13/13/1 12/12/1
f 10/10/1 7/7/1 21/21/1
f 14/14/1 10/10/1 20/20/1
f 11/11/1 14/14/1 15/15/1
f 12/12/1 16/16/1 17/17/1
f 21/21/1 12/12/1 19/19/1
f 20/20/1 21/21/1 18/18/1
f 15/15/1 20/20/1 22/22/1
f 25/25/1 15/15/1 24/24/1
f 27/27/1 28/28/1 6/6/1
f 29/29/1 31/31/1 32/32/1
f 36/36/1 29/29/1 34/34/1
f 35/35/1 36/36/1 33/33/1
f 30/30/1 35/35/1 37/37/1
f 40/40/1 30/30/1 39/39/1
f 41/41/1 43/43/1 44/44/1
f 48/48/1 41/41/1 46/46/1
f 47/47/1 48/48/1 45/45/1
f 42/42/1 47/47/1 49/49/1
f 52/52/1 42/42/1 51/51/1
o middle_floor
v 10.000000 4.006211 24.000000
v 10.000000 4.006211 22.000000
v 8.000000 4.006211 22.000000
v 8.000000 4.006211 24.000000
v 4.000000 4.006211 24.000000
v 6.000000 4.006211 24.000000
v 4.000000 4.006211 22.000000
v 6.000000 4.006211 22.000000
v 2.000000 4.006211 24.000000
v 4.000000 4.006211 24.000000
v 2.000000 4.006211 22.000000
v 4.000000 4.006211 22.000000
v 0.000000 4.006211 24.000000
v 2.000000 4.006211 24.000000
v 0.000000 4.006211 22.000000
v 2.000000 4.006211 22.000000
v 10.000000 4.006211 10.000000
v 8.000000 4.006211 12.000000
v 10.000000 4.006211 12.000000
v 6.000000 4.006211 10.000000
v 8.000000 4.006211 10.000000
v 6.000000 4.006211 12.000000
v 4.000000 4.006211 10.000000
v 4.000000 4.006211 12.000000
v 4.000000 4.006211 10.000000
v 4.000000 4.006211 12.000000
v 2.000000 4.006211 10.000000
v 2.000000 4.006211 12.000000
v 2.000000 4.006211 10.000000
v 2.000000 4.006211 12.000000
v 0.000000 4.006211 10.000000
v 0.000000 4.006211 12.000000
v 5.000000 0.006211 16.000000
v 5.000000 0.006211 18.000000
v 0.000000 2.006211 18.000000
v 2.000000 2.006211 18.000000
v 0.000000 2.006211 16.000000
v 2.000000 2.006211 16.000000
v 2.000000 0.006211 18.000000
v 2.000000 0.006211 16.000000
v 2.000000 0.006211 22.000000
v 2.000000 0.006211 12.000000
vn -0.0000 -1.0000 -0.0000
vn -0.0000 0.8944 0.4472
vn -0.0000 0.8944 -0.4472
vn -0.0000 1.0000 -0.0000
vn 0.5547 0.8321 -0.0000
vn -0.0000 -0.0000 1.0000
vn -0.0000 -0.0000 -1.0000
vn 1.0000 -0.0000 -0.0000
vt 0.812500 0.656417
vt 0.869820 0.656417
vt 0.869820 0.599098
vt 0.812500 0.599098
vt 0.812500 0.484458
vt 0.812500 0.541778
vt 0.869820 0.484458
vt 0.869820 0.541778
vt 0.005180 0.885695
vt 0.005180 0.943015
vt 0.062500 0.885695
vt 0.062500 0.943015
vt 0.812500 0.974098
vt 0.869820 0.974098
vt 0.812500 0.916778
vt 0.197861 0.943015
vt 0.140541 0.943015
vt 0.666778 0.666778
vt 0.869820 0.916778
vt 0.859459 0.416779
vt 0.802139 0.359459
vt 0.802139 0.416779
vt 0.859459 0.302139
vt 0.859459 0.359459
vt 0.802139 0.302139
vt 0.859459 0.244820
vt 0.802139 0.244820
vt 0.927139 0.437500
vt 0.869820 0.437500
vt 0.484459 0.283840
vt 0.927139 0.380180
vt 0.869820 0.380180
vt 0.484459 0.283840
vt 0.541778 0.838737
vt 0.609459 0.974098
vt 0.734459 0.906417
vt 0.734459 0.963737
vt 0.484459 0.283840
vt 0.677139 0.906417
vt 0.677139 0.963737
vt 0.552139 0.974098
vt 0.484459 0.283840
vt 0.677139 0.187500
vt 0.541778 0.187500
vt 0.552139 0.187500
vt 0.619820 0.187500
vt 0.072861 0.943015
vt 0.197861 0.885695
vt 0.609459 0.273479
vt 0.130180 0.943015
vt 0.140541 0.885695
vt 0.619820 0.244820
vt 0.552139 0.724098
vt 0.552139 0.916778
vt 0.072861 0.885696
vt 0.484459 0.273479
vt 0.609459 0.916778
vt 0.130180 0.885696
vt 0.677139 0.244820
vt 0.427139 0.781417
vt 0.552139 0.273479
vt 0.552139 0.781417
vt 0.541778 0.273479
vt 0.427139 0.724098
vt 0.666778 0.781417
vt 0.541778 0.724098
s 0
f 55/55/2 53/53/2 56/56/2
f 60/60/2 56/56/2 58/58/2
f 59/59/2 58/58/2 57/57/2
f 63/63/2 62/62/2 61/61/2
f 67/67/2 66/66/2 65/65/2
f 73/76/2 71/74/2 70/73/2
f 72/75/2 70/73/2 74/77/2
f 75/78/2 74/77/2 76/79/2
f 79/83/2 78/81/2 80/84/2
f 83/91/2 82/89/2 84/92/2
f 89/106/3 80/87/3 84/93/3
f 89/107/2 88/102/2 87/99/2
f 88/103/4 67/68/4 68/69/4
f 78/82/5 84/94/5 80/85/5
f 90/111/6 86/98/6 85/95/6
f 86/97/7 88/101/7 91/113/7
f 85/96/8 92/115/8 90/108/8
f 90/112/9 94/118/9 80/86/9
f 93/117/9 88/105/9 68/70/9
f 55/55/2 54/54/2 53/53/2
f 60/60/2 55/55/2 56/56/2
f 59/59/2 60/60/2 58/58/2
f 63/63/2 64/64/2 62/62/2
f 67/67/2 68/71/2 66/66/2
f 73/76/2 69/72/2 71/74/2
f 72/75/2 73/76/2 70/73/2
f 75/78/2 72/75/2 74/77/2
f 79/83/2 77/80/2 78/81/2
f 83/91/2 81/88/2 82/89/2
f 89/106/3 90/109/3 80/87/3
f 89/107/2 90/110/2 88/102/2
f 88/103/4 87/100/4 67/68/4
f 78/82/5 82/90/5 84/94/5
f 90/111/6 88/104/6 86/98/6
f 90/112/9 92/116/9 94/118/9
f 93/117/9 91/114/9 88/105/9
o wall_b
v 8.000000 0.000000 12.000000
v 10.000000 0.000000 12.000000
v 6.000000 0.000000 12.000000
v 4.000000 0.000000 12.000000
v 4.000000 0.000000 12.000000
v 2.000000 0.000000 12.000000
v 2.000000 0.000000 12.000000
v 0.000000 0.000000 12.000000
v 8.000000 4.000000 12.000000
v 10.000000 4.000000 12.000000
v 6.000000 4.000000 12.000000
v 4.000000 4.000000 12.000000
v 4.000000 4.000000 12.000000
v 2.000000 4.000000 12.000000
v 2.000000 4.000000 12.000000
v 0.000000 4.000000 12.000000
v 8.000000 0.000000 12.000000
v 10.000000 0.000000 12.000000
v 6.000000 0.000000 12.000000
v 4.000000 0.000000 12.000000
v 4.000000 0.000000 12.000000
v 2.000000 0.000000 12.000000
v 2.000000 0.000000 12.000000
v 0.000000 0.000000 12.000000
v 8.000000 4.000000 12.000000
v 10.000000 4.000000 12.000000
v 6.000000 4.000000 12.000000
v 4.000000 4.000000 12.000000
v 4.000000 4.000000 12.000000
v 2.000000 4.000000 12.000000
v 2.000000 4.000000 12.000000
v 0.000000 4.000000 12.000000
vn -0.0000 -0.0000 1.0000
vn -0.0000 -0.0000 -1.0000
vt 0.724098 0.119820
vt 0.724098 0.177139
vt 0.724098 0.062500
vt 0.724098 0.005180
vt 0.927139 0.130180
vt 0.869820 0.130180
vt 0.302139 0.849098
vt 0.244820 0.849098
vt 0.609458 0.119820
vt 0.609458 0.177139
vt 0.609458 0.062500
vt 0.609458 0.005180
vt 0.927139 0.244820
vt 0.869820 0.244820
vt 0.302139 0.963737
vt 0.244820 0.963737
vt 0.541779 0.599098
vt 0.541779 0.541778
vt 0.541779 0.656417
vt 0.541779 0.713737
vt 0.005180 0.760696
vt 0.062500 0.760696
vt 0.880180 0.484459
vt 0.937500 0.484459
vt 0.427139 0.599098
vt 0.427139 0.541778
vt 0.427139 0.656417
vt 0.427139 0.713737
vt 0.005180 0.875335
vt 0.062500 0.875335
vt 0.880180 0.599098
vt 0.937500 0.599098
s 0
f 96/120/10 103/127/10 95/119/10
f 99/123/10 108/132/10 100/124/10
f 95/119/10 105/129/10 97/121/10
f 97/121/10 106/130/10 98/122/10
f 101/125/10 110/134/10 102/126/10
f 112/136/10 119/143/10 111/135/10
f 115/139/10 124/148/10 116/140/10
f 111/135/10 121/145/10 113/137/10
f 113/137/10 122/146/10 114/138/10
f 126/150/11 117/141/11 118/142/11
f 96/120/10 104/128/10 103/127/10
f 99/123/10 107/131/10 108/132/10
f 95/119/10 103/127/10 105/129/10
f 97/121/10 105/129/10 106/130/10
f 101/125/10 109/133/10 110/134/10
f 112/136/10 120/144/10 119/143/10
f 115/139/10 123/147/10 124/148/10
f 111/135/10 119/143/10 121/145/10
f 113/137/10 121/145/10 122/146/10
f 126/150/11 125/149/11 117/141/11
o wall_c
v 10.000000 0.000000 22.000000
v 8.000000 0.000000 22.000000
v 6.000000 0.000000 22.000000
v 4.000000 0.000000 22.000000
v 4.000000 0.000000 22.000000
v 2.000000 0.000000 22.000000
v 2.000000 0.000000 22.000000
v 0.000000 0.000000 22.000000
v 10.000000 4.000000 22.000000
v 8.000000 4.000000 22.000000
v 6.000000 4.000000 22.000000
v 4.000000 4.000000 22.000000
v 4.000000 4.000000 22.000000
v 2.000000 4.000000 22.000000
v 2.000000 4.000000 22.000000
v 0.000000 4.000000 22.000000
v 10.000000 0.000000 22.000000
v 8.000000 0.000000 22.000000
v 6.000000 0.000000 22.000000
v 4.000000 0.000000 22.000000
v 4.000000 0.000000 22.000000
v 2.000000 0.000000 22.000000
v 2.000000 0.000000 22.000000
v 0.000000 0.000000 22.000000
v 10.000000 4.000000 22.000000
v 8.000000 4.000000 22.000000
v 6.000000 4.000000 22.000000
v 4.000000 4.000000 22.000000
v 4.000000 4.000000 22.000000
v 2.000000 4.000000 22.000000
v 2.000000 4.000000 22.000000
v 0.000000 4.000000 22.000000
vn -0.0000 -0.0000 1.0000
vn -0.0000 -0.0000 -1.0000
vt 0.359459 0.713737
vt 0.359459 0.656417
vt 0.359459 0.599098
vt 0.359459 0.541778
vt 0.869820 0.791778
vt 0.812500 0.791778
vt 0.802139 0.849098
vt 0.744820 0.849098
vt 0.244820 0.713737
vt 0.244820 0.656417
vt 0.244820 0.599098
vt 0.244820 0.541778
vt 0.869820 0.906417
vt 0.812500 0.906417
vt 0.802139 0.963737
vt 0.744820 0.963737
vt 0.666779 0.484459
vt 0.666779 0.541778
vt 0.666779 0.599098
vt 0.666779 0.656417
vt 0.677139 0.781417
vt 0.734459 0.781417
vt 0.880180 0.666778
vt 0.937500 0.666778
vt 0.552139 0.484459
vt 0.552139 0.541778
vt 0.552139 0.599098
vt 0.552139 0.656417
vt 0.677139 0.896057
vt 0.734459 0.896057
vt 0.880180 0.781417
vt 0.937500 0.781417
s 0
f 131/155/12 140/164/12 132/156/12
f 128/152/12 137/161/12 129/153/12
f 127/151/12 136/160/12 128/152/12
f 129/153/12 138/162/12 130/154/12
f 133/157/12 142/166/12 134/158/12
f 156/180/13 147/171/13 148/172/13
f 153/177/13 144/168/13 145/169/13
f 152/176/13 143/167/13 144/168/13
f 154/178/13 145/169/13 146/170/13
f 158/182/13 149/173/13 150/174/13
f 131/155/12 139/163/12 140/164/12
f 128/152/12 136/160/12 137/161/12
f 127/151/12 135/159/12 136/160/12
f 129/153/12 137/161/12 138/162/12
f 133/157/12 141/165/12 142/166/12
f 156/180/13 155/179/13 147/171/13
f 153/177/13 152/176/13 144/168/13
f 152/176/13 151/175/13 143/167/13
f 154/178/13 153/177/13 145/169/13
f 158/182/13 157/181/13 149/173/13
o wall_c.001
v 10.000000 4.000000 24.000000
v 8.000000 4.000000 24.000000
v 6.000000 4.000000 24.000000
v 4.000000 4.000000 24.000000
v 4.000000 4.000000 24.000000
v 2.000000 4.000000 24.000000
v 2.000000 4.000000 24.000000
v 0.000000 4.000000 24.000000
v 10.000000 8.000000 24.000000
v 8.000000 8.000000 24.000000
v 6.000000 8.000000 24.000000
v 4.000000 8.000000 24.000000
v 4.000000 8.000000 24.000000
v 2.000000 8.000000 24.000000
v 2.000000 8.000000 24.000000
v 0.000000 8.000000 24.000000
v 10.000000 4.000000 24.000000
v 8.000000 4.000000 24.000000
v 6.000000 4.000000 24.000000
v 4.000000 4.000000 24.000000
v 4.000000 4.000000 24.000000
v 2.000000 4.000000 24.000000
v 2.000000 4.000000 24.000000
v 0.000000 4.000000 24.000000
v 10.000000 8.000000 24.000000
v 8.000000 8.000000 24.000000
v 6.000000 8.000000 24.000000
v 4.000000 8.000000 24.000000
v 4.000000 8.000000 24.000000
v 2.000000 8.000000 24.000000
v 2.000000 8.000000 24.000000
v 0.000000 8.000000 24.000000
v 10.000000 4.000000 22.000000
v 10.000000 4.000000 24.000000
v 10.000000 8.000000 22.000000
v 10.000000 8.000000 24.000000
vn -0.0000 -0.0000 1.0000
vn -0.0000 -0.0000 -1.0000
vn -1.0000 -0.0000 -0.0000
vt 0.791779 0.474098
vt 0.791779 0.416779
vt 0.791779 0.359459
vt 0.791779 0.302139
vt 0.927139 0.255180
vt 0.869820 0.255180
vt 0.937500 0.791778
vt 0.880180 0.791778
vt 0.677139 0.474098
vt 0.677139 0.416779
vt 0.677139 0.359459
vt 0.677139 0.302139
vt 0.927139 0.369820
vt 0.869820 0.369820
vt 0.937500 0.906417
vt 0.880180 0.906417
vt 0.599098 0.005180
vt 0.599098 0.062500
vt 0.599098 0.119820
vt 0.599098 0.177139
vt 0.744820 0.724098
vt 0.802139 0.724098
vt 0.312500 0.849098
vt 0.369820 0.849098
vt 0.484458 0.005180
vt 0.484458 0.062500
vt 0.484458 0.119820
vt 0.484458 0.177139
vt 0.744820 0.838737
vt 0.802139 0.838737
vt 0.312500 0.963737
vt 0.369820 0.963737
vt 0.140541 0.760696
vt 0.197861 0.760696
vt 0.140541 0.875335
vt 0.197861 0.875335
s 0
f 163/187/14 172/196/14 164/188/14
f 160/184/14 169/193/14 161/185/14
f 159/183/14 168/192/14 160/184/14
f 161/185/14 170/194/14 162/186/14
f 165/189/14 174/198/14 166/190/14
f 188/212/15 179/203/15 180/204/15
f 185/209/15 176/200/15 177/201/15
f 184/208/15 175/199/15 176/200/15
f 186/210/15 177/201/15 178/202/15
f 190/214/15 181/205/15 182/206/15
f 194/218/16 191/215/16 192/216/16
f 163/187/14 171/195/14 172/196/14
f 160/184/14 168/192/14 169/193/14
f 159/183/14 167/191/14 168/192/14
f 161/185/14 169/193/14 170/194/14
f 165/189/14 173/197/14 174/198/14
f 188/212/15 187/211/15 179/203/15
f 185/209/15 184/208/15 176/200/15
f 184/208/15 183/207/15 175/199/15
f 186/210/15 185/209/15 177/201/15
f 190/214/15 189/213/15 181/205/15
f 194/218/16 193/217/16 191/215/16
o wall_b.001
v 8.000000 4.000000 10.000000
v 10.000000 4.000000 10.000000
v 6.000000 4.000000 10.000000
v 4.000000 4.000000 10.000000
v 4.000000 4.000000 10.000000
v 2.000000 4.000000 10.000000
v 2.000000 4.000000 10.000000
v 0.000000 4.000000 10.000000
v 8.000000 8.000000 10.000000
v 10.000000 8.000000 10.000000
v 6.000000 8.000000 10.000000
v 4.000000 8.000000 10.000000
v 4.000000 8.000000 10.000000
v 2.000000 8.000000 10.000000
v 2.000000 8.000000 10.000000
v 0.000000 8.000000 10.000000
v 8.000000 4.000000 10.000000
v 10.000000 4.000000 10.000000
v 6.000000 4.000000 10.000000
v 4.000000 4.000000 10.000000
v 4.000000 4.000000 10.000000
v 2.000000 4.000000 10.000000
v 2.000000 4.000000 10.000000
v 0.000000 4.000000 10.000000
v 8.000000 8.000000 10.000000
v 10.000000 8.000000 10.000000
v 6.000000 8.000000 10.000000
v 4.000000 8.000000 10.000000
v 4.000000 8.000000 10.000000
v 2.000000 8.000000 10.000000
v 2.000000 8.000000 10.000000
v 0.000000 8.000000 10.000000
v 10.000000 4.000000 10.000000
v 10.000000 4.000000 12.000000
v 10.000000 8.000000 10.000000
v 10.000000 8.000000 12.000000
vn -0.0000 -0.0000 1.0000
vn -1.0000 -0.0000 -0.0000
vt 0.666779 0.416779
vt 0.666779 0.474098
vt 0.666779 0.359459
vt 0.666779 0.302139
vt 0.927139 0.005180
vt 0.869820 0.005180
vt 0.994820 0.005180
vt 0.937500 0.005180
vt 0.552139 0.416779
vt 0.552139 0.474098
vt 0.552139 0.359459
vt 0.552139 0.302139
vt 0.927139 0.119820
vt 0.869820 0.119820
vt 0.994820 0.119820
vt 0.937500 0.119820
vt 0.072861 0.760696
vt 0.244819 0.724098
vt 0.130180 0.760696
vt 0.302139 0.724098
vt 0.359459 0.724098
vt 0.812500 0.666778
vt 0.869820 0.666778
vt 0.427139 0.849098
vt 0.484459 0.849098
vt 0.072861 0.875335
vt 0.244819 0.838737
vt 0.130180 0.875335
vt 0.302139 0.838737
vt 0.359459 0.838737
vt 0.812500 0.781417
vt 0.869820 0.781417
vt 0.427139 0.963737
vt 0.484459 0.963737
vt 0.552139 0.791778
vt 0.609459 0.791778
vt 0.552139 0.906417
vt 0.609459 0.906417
s 0
f 196/220/17 203/227/17 195/219/17
f 199/223/17 208/232/17 200/224/17
f 195/219/17 205/229/17 197/221/17
f 197/221/17 206/230/17 198/222/17
f 201/225/17 210/234/17 202/226/17
f 212/237/17 219/244/17 211/235/17
f 215/240/17 224/250/17 216/241/17
f 211/236/17 221/247/17 213/238/17
f 213/238/17 222/248/17 214/239/17
f 217/242/17 226/252/17 218/243/17
f 228/254/18 229/255/18 227/253/18
f 196/220/17 204/228/17 203/227/17
f 199/223/17 207/231/17 208/232/17
f 195/219/17 203/227/17 205/229/17
f 197/221/17 205/229/17 206/230/17
f 201/225/17 209/233/17 210/234/17
f 212/237/17 220/246/17 219/244/17
f 215/240/17 223/249/17 224/250/17
f 211/236/17 219/245/17 221/247/17
f 213/238/17 221/247/17 222/248/17
f 217/242/17 225/251/17 226/252/17
f 228/254/18 230/256/18 229/255/18
o Plane.004
v 10.000000 0.000000 22.000000
v 10.000000 0.000000 12.000000
v 10.000000 0.000000 14.000000
v 10.000000 0.000000 20.000000
v 12.000000 0.000000 14.000000
v 12.000000 0.000000 20.000000
v 10.000000 8.000000 22.000000
v 10.000000 8.000000 12.000000
v 10.000000 8.000000 14.000000
v 10.000000 8.000000 20.000000
v 12.000000 8.000000 14.000000
v 12.000000 8.000000 20.000000
v 0.000000 0.000000 30.000000
v 0.000000 0.000000 4.000000
v 0.000000 8.000000 30.000000
v 0.000000 8.000000 4.000000
vn -0.0000 -0.0000 -1.0000
vn -1.0000 -0.0000 -0.0000
vn -0.0000 -0.0000 1.0000
vn 1.0000 -0.0000 -0.0000
vt 0.802139 0.484459
vt 0.427139 0.302139
vt 0.484459 0.302139
vt 0.744820 0.484459
vt 0.859459 0.005180
vt 0.541778 0.302139
vt 0.244820 0.302139
vt 0.802139 0.005180
vt 0.416778 0.302139
vt 0.802139 0.713737
vt 0.427139 0.531417
vt 0.484459 0.531417
vt 0.859459 0.234459
vt 0.744820 0.713737
vt 0.541778 0.531417
vt 0.244820 0.531417
vt 0.416778 0.531417
vt 0.802139 0.234459
vt 0.234459 0.005180
vt 0.234459 0.750335
vt 0.005180 0.005180
vt 0.005180 0.750335
s 0
f 234/261/19 242/274/19 236/264/19
f 231/257/20 240/270/20 234/260/20
f 241/271/21 233/259/21 235/262/21
f 239/268/20 232/258/20 233/259/20
f 241/272/20 236/265/20 242/273/20
f 246/278/22 243/275/22 244/276/22
f 234/261/19 240/269/19 242/274/19
f 231/257/20 237/266/20 240/270/20
f 241/271/21 239/268/21 233/259/21
f 239/268/20 238/267/20 232/258/20
f 241/272/20 235/263/20 236/265/20
f 246/278/22 245/277/22 243/275/22
