# Blender 3.3.1
# www.blender.org
o Plane.004
v 16.000000 0.000000 12.000000
v 16.000000 0.000000 22.000000
v 6.000000 0.000000 22.000000
v 6.000000 0.000000 12.000000
v 6.000000 0.000000 14.000000
v 6.000000 0.000000 20.000000
v 16.000000 0.000000 30.000000
v 0.000000 0.000000 30.000000
v 8.000000 0.000000 14.000000
v 8.000000 0.000000 20.000000
v 16.000000 0.000000 4.000000
v 0.000000 0.000000 4.000000
v 16.000000 8.000000 12.000000
v 16.000000 8.000000 22.000000
v 6.000000 8.000000 22.000000
v 6.000000 8.000000 12.000000
v 6.000000 8.000000 14.000000
v 6.000000 8.000000 20.000000
v 16.000000 8.000000 30.000000
v 0.000000 8.000000 30.000000
v 8.000000 8.000000 14.000000
v 8.000000 8.000000 20.000000
v 16.000000 8.000000 4.000000
v 0.000000 8.000000 4.000000
v 16.000000 8.000000 22.000000
v 0.000000 8.000000 22.000000
v 16.000000 13.000000 26.000000
v 0.000000 13.000000 26.000000
v 16.000000 13.000000 8.000000
v 0.000000 13.000000 8.000000
v 16.000000 8.000000 12.000000
v 0.000000 8.000000 12.000000
v 0.000000 8.000000 20.000000
v 8.000000 8.000000 20.000000
v 0.000000 8.000000 14.000000
v 8.000000 8.000000 14.000000
v 0.000000 13.000000 17.000000
v 8.000000 13.000000 17.000000
v 6.000000 8.000000 30.000000
v 6.000000 8.000000 4.000000
v 3.000000 12.000000 26.000000
v 3.000000 12.000000 8.000000
vn -0.0000 -0.0000 1.0000
vn -1.0000 -0.0000 -0.0000
vn 1.0000 -0.0000 -0.0000
vn -0.0000 -0.0000 -1.0000
vn -0.0000 0.6247 0.7809
vn -0.0000 -0.6247 0.7809
vn -0.0000 0.6247 -0.7809
vn -0.0000 -0.5145 -0.8575
vn -0.0000 -0.5145 0.8575
vn 0.8000 0.6000 -0.0000
vn -0.8000 0.6000 -0.0000
vt 0.176476 0.830353
vt 0.654982 0.710425
vt 0.645942 0.615408
vt 0.443451 0.710425
vt 0.645942 0.830353
vt 0.185516 0.615407
vt 0.176476 0.615407
vt 0.228506 0.796404
vt 0.185516 0.796404
vt 0.995480 0.710425
vt 0.228506 0.615407
vt 0.952491 0.004520
vt 0.271495 0.710425
vt 0.550923 0.348433
vt 0.550923 0.004520
vt 0.004520 0.004520
vt 0.952491 0.710425
vt 0.917311 0.013785
vt 0.995480 0.004520
vt 0.794851 0.013785
vt 0.826938 0.710425
vt 0.443451 0.357473
vt 0.004520 0.606367
vt 0.443451 0.701385
vt 0.004520 0.830353
vt 0.654982 0.882382
vt 0.473986 0.615408
vt 0.443451 0.882382
vt 0.185516 0.787364
vt 0.473986 0.830353
vt 0.004520 0.615407
vt 0.228506 0.968360
vt 0.995480 0.882382
vt 0.185516 0.968360
vt 0.952491 0.176476
vt 0.228506 0.787364
vt 0.878967 0.185516
vt 0.378967 0.348433
vt 0.271495 0.882382
vt 0.943451 0.882382
vt 0.176476 0.004520
vt 0.378967 0.004520
vt 0.952491 0.882382
vt 0.917311 0.177066
vt 0.794851 0.177066
vt 0.995480 0.176476
vt 0.762455 0.701385
vt 0.892634 0.724084
vt 0.826938 0.882382
vt 0.271495 0.357473
vt 0.561712 0.840919
vt 0.271495 0.701385
vt 0.762455 0.357472
vt 0.176476 0.606367
vt 0.762455 0.004520
vt 0.878967 0.357472
vt 0.943451 0.710425
vt 0.762455 0.348433
vt 0.771495 0.271494
vt 0.654983 0.004520
vt 0.271495 0.348433
vt 0.835979 0.796403
vt 0.654983 0.348433
vt 0.271495 0.004520
vt 0.784922 0.638407
vt 0.654983 0.701385
vt 0.464765 0.916687
vt 0.654983 0.357472
vt 0.892153 0.552129
vt 0.762455 0.701385
vt 0.559964 0.994637
vt 0.762455 0.357472
vt 0.995481 0.357473
vt 0.106954 0.844670
vt 0.935487 0.845787
vt 0.995481 0.185516
vt 0.995481 0.366513
vt 0.108318 0.990400
vt 0.935487 0.743337
vt 0.995481 0.538469
vt 0.016555 0.918387
vt 0.888008 0.357473
vt 0.888008 0.366513
vt 0.831535 0.795177
vt 0.888008 0.185516
vt 0.888008 0.538469
vt 0.559964 0.606367
vt 0.559964 0.004520
vt 0.645942 0.520364
vt 0.262455 0.090498
vt 0.645942 0.090473
vt 0.262455 0.520390
s 0
f 22/46/1 6/12/1 10/19/1
f 8/16/2 24/54/2 12/23/2
f 18/36/3 3/6/3 6/11/3
f 1/1/1 16/31/1 4/7/1
f 7/14/1 20/42/1 8/15/1
f 15/30/4 2/3/4 3/5/4
f 23/49/3 1/2/3 11/21/3
f 5/10/4 21/43/4 9/17/4
f 2/4/3 19/39/3 7/13/3
f 24/52/4 11/22/4 12/24/4
f 4/8/3 17/34/3 5/9/3
f 30/68/5 31/70/5 29/66/5
f 29/66/6 24/53/6 23/47/6
f 26/58/7 27/60/7 25/55/7
f 27/61/5 20/42/5 19/38/5
f 37/82/8 34/76/8 33/73/8
f 36/80/9 37/83/9 35/77/9
f 27/59/3 19/37/3 25/56/3
f 29/65/3 31/69/3 23/48/3
f 28/62/2 26/57/2 20/40/2
f 37/81/2 35/78/2 33/74/2
f 30/67/2 24/51/2 32/71/2
f 40/88/10 41/89/10 39/87/10
f 41/90/11 24/54/11 20/41/11
f 38/84/3 34/75/3 36/79/3
f 10/20/3 21/44/3 22/45/3
f 22/46/1 18/35/1 6/12/1
f 8/16/2 20/41/2 24/54/2
f 18/36/3 15/29/3 3/6/3
f 1/1/1 13/25/1 16/31/1
f 7/14/1 19/38/1 20/42/1
f 15/30/4 14/27/4 2/3/4
f 23/49/3 13/26/3 1/2/3
f 5/10/4 17/33/4 21/43/4
f 2/4/3 14/28/3 19/39/3
f 24/52/4 23/50/4 11/22/4
f 4/8/3 16/32/3 17/34/3
f 30/68/5 32/72/5 31/70/5
f 29/66/6 30/68/6 24/53/6
f 26/58/7 28/63/7 27/60/7
f 27/61/5 28/64/5 20/42/5
f 37/82/8 38/85/8 34/76/8
f 36/80/9 38/86/9 37/83/9
f 40/88/10 42/91/10 41/89/10
f 41/90/11 42/92/11 24/54/11
f 10/20/3 9/18/3 21/44/3
o Cube
v 6.850212 -0.106928 21.772295
v 6.850212 1.063469 21.772295
v 6.850212 -0.106928 20.601896
v 6.850212 1.063469 20.601896
v 15.179907 -0.106928 21.772295
v 15.179907 1.063469 21.772295
v 15.179907 -0.106928 20.601896
v 15.179907 1.063469 20.601896
vn -1.0000 -0.0000 -0.0000
vn -0.0000 -0.0000 -1.0000
vn 1.0000 -0.0000 -0.0000
vn -0.0000 -0.0000 1.0000
vn -0.0000 -1.0000 -0.0000
vn -0.0000 1.0000 -0.0000
vt 0.748668 0.937325
vt 0.664179 0.930504
vt 0.316454 0.316454
vt 0.748668 0.976456
vt 0.664179 0.972604
vt 0.684410 0.931100
vt 0.659560 0.927430
vt 0.316454 0.683546
vt 0.787798 0.937325
vt 0.787798 0.976456
vt 0.659560 0.968899
vt 0.684410 0.975764
vt 0.933792 0.930504
vt 0.720031 0.932039
vt 1.000000 0.000000
vt 0.720031 0.984447
vt 0.933792 0.972604
vt 0.938769 0.931100
vt 0.772438 0.932039
vt 0.942511 0.927430
vt 1.000000 1.000000
vt 0.938769 0.975764
vt 0.942511 0.968899
vt 0.772438 0.984447
s 0
f 44/96/12 45/101/12 43/93/12
f 46/103/13 49/112/13 45/99/13
f 50/116/14 47/106/14 49/111/14
f 48/109/15 43/94/15 47/105/15
f 49/113/16 43/95/16 45/100/16
f 46/104/17 48/110/17 50/114/17
f 44/96/12 46/102/12 45/101/12
f 46/103/13 50/115/13 49/112/13
f 50/116/14 48/108/14 47/106/14
f 48/109/15 44/97/15 43/94/15
f 49/113/16 47/107/16 43/95/16
f 46/104/17 44/98/17 48/110/17
o Cube.001
v 6.850212 -0.106928 13.512802
v 6.850212 1.063469 13.512802
v 6.850212 -0.106928 12.342405
v 6.850212 1.063469 12.342405
v 15.179907 -0.106928 13.512802
v 15.179907 1.063469 13.512802
v 15.179907 -0.106928 12.342405
v 15.179907 1.063469 12.342405
vn -1.0000 -0.0000 -0.0000
vn -0.0000 -0.0000 -1.0000
vn 1.0000 -0.0000 -0.0000
vn -0.0000 -0.0000 1.0000
vn -0.0000 -1.0000 -0.0000
vn -0.0000 1.0000 -0.0000
vt 0.748668 0.937325
vt 0.664179 0.930504
vt 0.316454 0.316454
vt 0.748668 0.976456
vt 0.664179 0.972604
vt 0.684410 0.931100
vt 0.659560 0.927430
vt 0.316454 0.683546
vt 0.787798 0.937325
vt 0.787798 0.976456
vt 0.659560 0.968899
vt 0.684410 0.975764
vt 0.933792 0.930504
vt 0.720031 0.932039
vt 1.000000 0.000000
vt 0.720031 0.984447
vt 0.933792 0.972604
vt 0.938769 0.931100
vt 0.772438 0.932039
vt 0.942511 0.927430
vt 1.000000 1.000000
vt 0.938769 0.975764
vt 0.942511 0.968899
vt 0.772438 0.984447
s 0
f 52/120/18 53/125/18 51/117/18
f 54/127/19 57/136/19 53/123/19
f 58/140/20 55/130/20 57/135/20
f 56/133/21 51/118/21 55/129/21
f 57/137/22 51/119/22 53/124/22
f 54/128/23 56/134/23 58/138/23
f 52/120/18 54/126/18 53/125/18
f 54/127/19 58/139/19 57/136/19
f 58/140/20 56/132/20 55/130/20
f 56/133/21 52/121/21 51/118/21
f 57/137/22 55/131/22 51/119/22
f 54/128/23 52/122/23 56/134/23
