# Blender 3.3.1
# www.blender.org
o Plane.006
v 0.000000 0.000000 6.000000
v 2.000000 0.000000 6.000000
v 0.000000 0.000000 4.000000
v 0.000000 0.000000 2.000000
v 0.000000 0.000000 0.000000
v 2.000000 0.000000 0.000000
v 4.000000 0.000000 0.000000
v 2.000000 0.000000 4.000000
v 4.000000 0.000000 4.000000
v 2.000000 0.000000 2.000000
v 4.000000 0.000000 2.000000
v 6.000000 0.000000 2.000000
v 6.000000 0.000000 0.000000
v 6.000000 0.000000 4.000000
v 0.000000 0.000000 8.000000
v 2.000000 0.000000 8.000000
v 4.000000 0.000000 6.000000
v 6.000000 0.000000 6.000000
v 4.000000 0.000000 8.000000
v 6.000000 0.000000 8.000000
v 0.000000 0.000000 4.630424
v 2.000000 0.000000 4.630424
v 4.000000 0.000000 4.630424
v 6.000000 0.000000 4.630424
v 2.580357 0.000000 0.000000
v 2.580357 0.000000 4.000000
v 2.580357 0.000000 2.000000
v 2.580357 0.000000 6.000000
v 2.580357 0.000000 8.000000
v 2.580357 0.000000 4.630424
vn -0.0000 -1.0000 -0.0000
vt 0.664173 0.773621
vt 0.554724 0.773621
vt 0.664173 0.664173
vt 0.664173 0.554724
vt 0.664173 0.445276
vt 0.554724 0.445276
vt 0.445276 0.445276
vt 0.554724 0.664173
vt 0.445276 0.664173
vt 0.554724 0.554724
vt 0.445276 0.554724
vt 0.335827 0.554724
vt 0.335827 0.445276
vt 0.335827 0.664173
vt 0.664173 0.883070
vt 0.554724 0.883070
vt 0.445276 0.773621
vt 0.335827 0.773621
vt 0.445276 0.883070
vt 0.335827 0.883070
vt 0.664173 0.698672
vt 0.554724 0.698672
vt 0.445276 0.698672
vt 0.335827 0.698672
vt 0.522965 0.445276
vt 0.522965 0.664173
vt 0.522965 0.554724
vt 0.522965 0.773621
vt 0.522965 0.883070
vt 0.522965 0.698672
s 0
f 3/3/1 22/22/1 21/21/1
f 5/5/1 10/10/1 4/4/1
f 4/4/1 8/8/1 3/3/1
f 25/25/1 11/11/1 27/27/1
f 27/27/1 9/9/1 26/26/1
f 7/7/1 12/12/1 11/11/1
f 11/11/1 14/14/1 9/9/1
f 1/1/1 16/16/1 15/15/1
f 28/28/1 19/19/1 29/29/1
f 17/17/1 20/20/1 19/19/1
f 23/23/1 18/18/1 17/17/1
f 30/30/1 17/17/1 28/28/1
f 21/21/1 2/2/1 1/1/1
f 2/2/1 29/29/1 16/16/1
f 10/10/1 26/26/1 8/8/1
f 6/6/1 27/27/1 10/10/1
f 3/3/1 8/8/1 22/22/1
f 5/5/1 6/6/1 10/10/1
f 4/4/1 10/10/1 8/8/1
f 25/25/1 7/7/1 11/11/1
f 27/27/1 11/11/1 9/9/1
f 7/7/1 13/13/1 12/12/1
f 11/11/1 12/12/1 14/14/1
f 1/1/1 2/2/1 16/16/1
f 28/28/1 17/17/1 19/19/1
f 17/17/1 18/18/1 20/20/1
f 23/23/1 24/24/1 18/18/1
f 30/30/1 23/23/1 17/17/1
f 21/21/1 22/22/1 2/2/1
f 2/2/1 28/28/1 29/29/1
f 10/10/1 27/27/1 26/26/1
f 6/6/1 25/25/1 27/27/1
o Plane.001
v 0.000000 0.000000 0.000000
v 6.000000 0.000000 0.000000
v 0.000000 0.000000 8.000000
v 6.000000 0.000000 8.000000
v 0.000000 4.000000 0.000000
v 6.000000 4.000000 0.000000
v 0.000000 4.000000 8.000000
v 6.000000 4.000000 8.000000
v 3.000000 6.000000 0.000000
v 3.000000 6.000000 8.000000
v 0.000000 4.000000 -0.304833
v 6.000000 4.000000 -0.304833
v 3.000000 6.000000 -0.304833
v 0.000000 4.000000 0.000000
v 3.000000 6.000000 0.000000
v 0.000000 4.000000 -0.304833
v 3.000000 6.000000 -0.304833
vn -1.0000 -0.0000 -0.0000
vn -0.0000 -0.0000 -1.0000
vn -0.0000 -0.0000 1.0000
vn -0.5547 -0.8321 -0.0000
vn -0.5547 0.8321 -0.0000
vn 0.5547 -0.8321 -0.0000
vt 0.330840 0.330840
vt 0.330840 0.002494
vt 0.997506 0.440288
vt 0.330840 0.768633
vt 0.997506 0.773622
vt 0.997506 0.002494
vt 0.669160 0.773622
vt 0.111942 0.330840
vt 0.002723 0.545980
vt 0.666652 0.422592
vt 0.111942 0.002494
vt 0.778609 0.440288
vt 0.997506 0.554724
vt 0.111942 0.768633
vt 0.669160 0.554724
vt 0.778609 0.002494
vt 0.669160 0.440288
vt 0.002494 0.166667
vt 0.112448 0.545980
vt 0.002494 0.330840
vt 0.779804 0.422592
vt 0.833333 0.445276
vt 0.669160 0.002494
vt 0.002494 0.768633
vt 0.002723 0.536703
vt 0.666652 0.432158
vt 0.112448 0.536703
vt 0.779804 0.432158
vt 0.002723 0.545980
vt 0.112448 0.545980
vt 0.002723 0.536703
vt 0.112448 0.536703
s 0
f 38/46/2 32/33/2 34/36/2
f 31/31/3 36/41/3 32/32/3
f 37/44/2 31/31/2 33/34/2
f 38/45/4 33/35/4 34/37/4
f 36/42/5 40/53/5 39/47/5
f 37/44/6 39/50/6 35/38/6
f 36/41/3 35/38/3 39/48/3
f 38/45/4 40/52/4 37/43/4
f 35/39/7 43/57/7 39/49/7
f 39/51/5 42/56/5 36/40/5
f 47/62/6 44/59/6 45/60/6
f 38/46/2 36/42/2 32/33/2
f 31/31/3 35/38/3 36/41/3
f 37/44/2 35/38/2 31/31/2
f 38/45/4 37/43/4 33/35/4
f 36/42/5 38/46/5 40/53/5
f 37/44/6 40/54/6 39/50/6
f 35/39/7 41/55/7 43/57/7
f 39/51/5 43/58/5 42/56/5
f 47/62/6 46/61/6 44/59/6
o Plane.002
v 0.000000 2.000000 6.000000
v 2.000000 2.000000 6.000000
v 0.000000 2.000000 4.000000
v 0.000000 2.000000 2.000000
v 0.000000 2.000000 0.000000
v 2.000000 2.000000 0.000000
v 4.000000 2.000000 0.000000
v 2.000000 2.000000 4.000000
v 4.000000 2.000000 4.000000
v 2.000000 2.000000 2.000000
v 4.000000 2.000000 2.000000
v 6.000000 2.000000 2.000000
v 6.000000 2.000000 0.000000
v 6.000000 2.000000 4.000000
v 0.000000 2.000000 8.000000
v 2.000000 2.000000 8.000000
v 4.000000 2.000000 6.000000
v 6.000000 2.000000 6.000000
v 4.000000 2.000000 8.000000
v 6.000000 2.000000 8.000000
vn -0.0000 1.0000 -0.0000
vt 0.335827 0.330839
vt 0.445276 0.330839
vt 0.335827 0.221391
vt 0.335827 0.111942
vt 0.335827 0.002494
vt 0.445276 0.002494
vt 0.554724 0.002494
vt 0.445276 0.221391
vt 0.554724 0.221391
vt 0.445276 0.111942
vt 0.554724 0.111942
vt 0.664173 0.111942
vt 0.664173 0.002494
vt 0.664173 0.221391
vt 0.335827 0.440288
vt 0.445276 0.440288
vt 0.554724 0.330839
vt 0.664173 0.330839
vt 0.554724 0.440288
vt 0.664173 0.440288
s 0
f 49/64/8 50/65/8 48/63/8
f 57/72/8 52/67/8 51/66/8
f 55/70/8 51/66/8 50/65/8
f 58/73/8 53/68/8 57/72/8
f 56/71/8 57/72/8 55/70/8
f 59/74/8 54/69/8 58/73/8
f 61/76/8 58/73/8 56/71/8
f 63/78/8 48/63/8 62/77/8
f 64/79/8 55/70/8 49/64/8
f 66/81/8 49/64/8 63/78/8
f 65/80/8 56/71/8 64/79/8
f 67/82/8 64/79/8 66/81/8
f 49/64/8 55/70/8 50/65/8
f 57/72/8 53/68/8 52/67/8
f 55/70/8 57/72/8 51/66/8
f 58/73/8 54/69/8 53/68/8
f 56/71/8 58/73/8 57/72/8
f 59/74/8 60/75/8 54/69/8
f 61/76/8 59/74/8 58/73/8
f 63/78/8 49/64/8 48/63/8
f 64/79/8 56/71/8 55/70/8
f 66/81/8 64/79/8 49/64/8
f 65/80/8 61/76/8 56/71/8
f 67/82/8 65/80/8 64/79/8
o Plane.003
v 2.000000 0.000000 6.000000
v 2.000000 0.000000 4.000000
v 4.000000 0.000000 4.000000
v 6.000000 0.000000 4.000000
v 2.000000 0.000000 4.630424
v 4.000000 0.000000 4.630424
v 6.000000 0.000000 4.630424
v 2.580357 0.000000 4.000000
v 2.580357 0.000000 6.000000
v 2.580357 0.000000 4.630424
v 2.580357 0.723097 4.000000
v 4.000000 0.723097 4.000000
v 2.000000 0.723097 4.630424
v 2.000000 0.723097 4.000000
v 6.000000 0.723097 4.000000
v 4.000000 0.723097 4.630424
v 6.000000 0.723097 4.630424
v 2.000000 0.723097 6.000000
v 2.580357 0.723097 4.630424
v 2.580357 0.723097 6.000000
vn -0.0000 -0.0000 1.0000
vn 1.0000 -0.0000 -0.0000
vn -0.0000 -0.0000 -1.0000
vn -0.0000 -1.0000 -0.0000
vn -1.0000 -0.0000 -0.0000
vt 0.669160 0.778609
vt 0.245619 0.883070
vt 0.245619 0.773621
vt 0.156501 0.992518
vt 0.156501 0.883070
vt 0.156501 0.773621
vt 0.329665 0.773621
vt 0.245619 0.808121
vt 0.201060 0.851310
vt 0.295165 0.773621
vt 0.201060 0.960759
vt 0.156501 0.960759
vt 0.290177 0.773621
vt 0.700920 0.778609
vt 0.201060 0.773621
vt 0.290177 0.848570
vt 0.116930 0.960759
vt 0.111942 0.960759
vt 0.111942 0.883070
vt 0.116930 0.883070
vt 0.077443 0.992518
vt 0.206048 0.808121
vt 0.116930 0.992518
vt 0.111942 0.992518
vt 0.206048 0.773621
vt 0.111942 0.773621
vt 0.329665 0.813192
vt 0.116930 0.773621
vt 0.077443 0.883070
vt 0.161489 0.851310
vt 0.161489 0.960759
vt 0.077443 0.773621
vt 0.295165 0.813192
vt 0.002494 0.992518
vt 0.206048 0.883070
vt 0.669160 0.818180
vt 0.077443 0.960759
vt 0.161489 0.773621
vt 0.250606 0.848570
vt 0.002494 0.960759
vt 0.250606 0.773621
vt 0.700920 0.818180
s 0
f 78/99/9 69/86/9 75/94/9
f 79/102/9 75/94/9 70/87/9
f 80/104/10 68/84/10 72/90/10
f 83/112/11 74/93/11 73/91/11
f 78/100/12 83/111/12 86/119/12
f 79/101/12 84/114/12 83/111/12
f 80/103/12 87/122/12 85/116/12
f 81/106/12 86/119/12 80/103/12
f 84/115/13 71/89/13 74/92/13
f 86/120/11 73/91/11 77/97/11
f 82/110/9 70/87/9 71/88/9
f 87/123/13 77/98/13 76/95/13
f 81/107/10 72/90/10 69/85/10
f 85/118/11 76/96/11 68/83/11
f 78/99/9 81/105/9 69/86/9
f 79/102/9 78/99/9 75/94/9
f 80/104/10 85/117/10 68/84/10
f 83/112/11 84/113/11 74/93/11
f 78/100/12 79/101/12 83/111/12
f 79/101/12 82/108/12 84/114/12
f 80/103/12 86/119/12 87/122/12
f 81/106/12 78/100/12 86/119/12
f 84/115/13 82/109/13 71/89/13
f 86/120/11 83/112/11 73/91/11
f 82/110/9 79/102/9 70/87/9
f 87/123/13 86/121/13 77/98/13
f 81/107/10 80/104/10 72/90/10
f 85/118/11 87/124/11 76/96/11
o Plane.004
v 0.000000 0.000000 14.000000
v -0.000000 0.000000 8.000000
v 0.000000 4.000000 14.000000
v -0.000000 4.000000 8.000000
vn 1.0000 -0.0000 -0.0000
vt 0.997506 0.773622
vt 0.669160 0.773622
vt 0.997506 0.554724
vt 0.669160 0.554724
s 0
f 91/128/14 88/125/14 89/126/14
f 91/128/14 90/127/14 88/125/14
o Plane.005
v 6.000000 0.000000 8.000000
v 6.000000 0.000000 14.000000
v 6.000000 4.000000 8.000000
v 6.000000 4.000000 14.000000
vn -1.0000 -0.0000 -0.0000
vt 0.997506 0.773622
vt 0.669160 0.773622
vt 0.997506 0.554724
vt 0.669160 0.554724
s 0
f 95/132/15 92/129/15 93/130/15
f 95/132/15 94/131/15 92/129/15
o Plane.007
v 6.000000 0.000000 14.000000
v 0.000000 0.000000 14.000000
v 6.000000 4.000000 14.000000
v 0.000000 4.000000 14.000000
vn -0.0000 -0.0000 -1.0000
vt 0.997506 0.773622
vt 0.669160 0.773622
vt 0.997506 0.554724
vt 0.669160 0.554724
s 0
f 99/136/16 96/133/16 97/134/16
f 99/136/16 98/135/16 96/133/16
o Plane.008
v 0.000000 0.000000 12.000000
v 2.000000 0.000000 12.000000
v 0.000000 0.000000 10.000000
v 0.000000 0.000000 8.000000
v 0.000000 0.000000 6.000000
v 2.000000 0.000000 6.000000
v 4.000000 0.000000 6.000000
v 2.000000 0.000000 10.000000
v 4.000000 0.000000 10.000000
v 2.000000 0.000000 8.000000
v 4.000000 0.000000 8.000000
v 6.000000 0.000000 8.000000
v 6.000000 0.000000 6.000000
v 6.000000 0.000000 10.000000
v 0.000000 0.000000 14.000000
v 2.000000 0.000000 14.000000
v 4.000000 0.000000 12.000000
v 6.000000 0.000000 12.000000
v 4.000000 0.000000 14.000000
v 6.000000 0.000000 14.000000
vn -0.0000 1.0000 -0.0000
vt 0.335827 0.330839
vt 0.445276 0.330839
vt 0.335827 0.221391
vt 0.335827 0.111942
vt 0.335827 0.002494
vt 0.445276 0.002494
vt 0.554724 0.002494
vt 0.445276 0.221391
vt 0.554724 0.221391
vt 0.445276 0.111942
vt 0.554724 0.111942
vt 0.664173 0.111942
vt 0.664173 0.002494
vt 0.664173 0.221391
vt 0.335827 0.440288
vt 0.445276 0.440288
vt 0.554724 0.330839
vt 0.664173 0.330839
vt 0.554724 0.440288
vt 0.664173 0.440288
s 0
f 101/138/17 102/139/17 100/137/17
f 109/146/17 104/141/17 103/140/17
f 107/144/17 103/140/17 102/139/17
f 110/147/17 105/142/17 109/146/17
f 108/145/17 109/146/17 107/144/17
f 111/148/17 106/143/17 110/147/17
f 113/150/17 110/147/17 108/145/17
f 115/152/17 100/137/17 114/151/17
f 116/153/17 107/144/17 101/138/17
f 118/155/17 101/138/17 115/152/17
f 117/154/17 108/145/17 116/153/17
f 119/156/17 116/153/17 118/155/17
f 101/138/17 107/144/17 102/139/17
f 109/146/17 105/142/17 104/141/17
f 107/144/17 109/146/17 103/140/17
f 110/147/17 106/143/17 105/142/17
f 108/145/17 110/147/17 109/146/17
f 111/148/17 112/149/17 106/143/17
f 113/150/17 111/148/17 110/147/17
f 115/152/17 101/138/17 100/137/17
f 116/153/17 108/145/17 107/144/17
f 118/155/17 116/153/17 101/138/17
f 117/154/17 113/150/17 108/145/17
f 119/156/17 117/154/17 116/153/17
