# Blender 3.3.1
# www.blender.org
o Plane.001
v 0.000000 0.000000 -2.000000
v 2.000000 0.000000 -2.000000
v 0.000000 0.000000 -4.000000
v 2.000000 0.000000 -4.000000
vn -0.0000 1.0000 -0.0000
vt 0.000000 0.500000
vt 0.500000 0.500000
vt 0.000000 1.000000
vt 0.500000 1.000000
s 0
f 1/1/1 2/2/1 4/4/1 3/3/1
o Plane.005
v 0.000000 0.000000 -4.000000
v 2.000000 0.000000 -4.000000
v 0.000000 2.000000 -4.000000
v 2.000000 2.000000 -4.000000
vn -0.0000 -0.0000 1.0000
vt -0.000000 0.000000
vt 0.500000 0.000000
vt -0.000000 0.500000
vt 0.500000 0.500000
s 0
f 5/5/2 6/6/2 8/8/2 7/7/2
o Plane.006
v 0.000000 2.000000 -4.000000
v 2.000000 2.000000 -4.000000
v 0.000000 4.000000 -4.000000
v 2.000000 4.000000 -4.000000
vn -0.0000 -0.0000 1.0000
vt -0.000000 0.000000
vt 0.500000 0.000000
vt -0.000000 0.500000
vt 0.500000 0.500000
s 0
f 9/9/3 10/10/3 12/12/3 11/11/3
o Plane.007
v 2.000000 0.000000 -4.000000
v 4.000000 0.000000 -4.000000
v 2.000000 2.000000 -4.000000
v 4.000000 2.000000 -4.000000
vn -0.0000 -0.0000 1.0000
vt -0.000000 0.000000
vt 0.500000 0.000000
vt -0.000000 0.500000
vt 0.500000 0.500000
s 0
f 13/13/4 14/14/4 16/16/4 15/15/4
o Plane.008
v 2.000000 2.000000 -4.000000
v 4.000000 2.000000 -4.000000
v 2.000000 4.000000 -4.000000
v 4.000000 4.000000 -4.000000
vn -0.0000 -0.0000 1.0000
vt -0.000000 0.000000
vt 0.500000 0.000000
vt -0.000000 0.500000
vt 0.500000 0.500000
s 0
f 17/17/5 18/18/5 20/20/5 19/19/5
o Plane.009
v -4.000000 0.000000 -4.000000
v -2.000000 0.000000 -4.000000
v -4.000000 2.000000 -4.000000
v -2.000000 2.000000 -4.000000
vn -0.0000 -0.0000 1.0000
vt -0.000000 0.000000
vt 0.500000 0.000000
vt -0.000000 0.500000
vt 0.500000 0.500000
s 0
f 21/21/6 22/22/6 24/24/6 23/23/6
o Plane.010
v -4.000000 2.000000 -4.000000
v -2.000000 2.000000 -4.000000
v -4.000000 4.000000 -4.000000
v -2.000000 4.000000 -4.000000
vn -0.0000 -0.0000 1.0000
vt -0.000000 0.000000
vt 0.500000 0.000000
vt -0.000000 0.500000
vt 0.500000 0.500000
s 0
f 25/25/7 26/26/7 28/28/7 27/27/7
o Plane.011
v -2.000000 0.000000 -4.000000
v 0.000000 0.000000 -4.000000
v -2.000000 2.000000 -4.000000
v 0.000000 2.000000 -4.000000
v -1.333333 0.000000 -4.000000
v -0.666667 0.000000 -4.000000
v -0.666667 2.000000 -4.000000
v -1.333333 2.000000 -4.000000
v -2.000000 0.266349 -4.000000
v 0.000000 0.266349 -4.000000
v -1.333333 0.266349 -4.000000
v -0.666667 0.266349 -4.000000
vn -0.0000 -0.0000 1.0000
vt -0.000000 0.000000
vt 0.500000 0.000000
vt -0.000000 0.500000
vt 0.500000 0.500000
vt 0.166667 0.000000
vt 0.333333 0.000000
vt 0.333333 0.500000
vt 0.166667 0.500000
vt 0.000000 0.066587
vt 0.500000 0.066587
vt 0.166667 0.066587
vt 0.333333 0.066587
s 0
f 40/40/8 38/38/8 32/32/8 35/35/8
f 37/37/8 39/39/8 36/36/8 31/31/8
f 39/39/8 40/40/8 35/35/8 36/36/8
f 29/29/8 33/33/8 39/39/8 37/37/8
f 34/34/8 30/30/8 38/38/8 40/40/8
o Plane.012
v -2.000000 2.000000 -4.000000
v 0.000000 2.000000 -4.000000
v -2.000000 4.000000 -4.000000
v 0.000000 4.000000 -4.000000
vn -0.0000 -0.0000 1.0000
vt -0.000000 0.000000
vt 0.500000 0.000000
vt -0.000000 0.500000
vt 0.500000 0.500000
s 0
f 41/41/9 42/42/9 44/44/9 43/43/9
o Plane.013
v -2.000000 0.000000 -2.000000
v 0.000000 0.000000 -2.000000
v -2.000000 0.000000 -4.000000
v 0.000000 0.000000 -4.000000
vn -0.0000 1.0000 -0.0000
vt 0.000000 0.500000
vt 0.500000 0.500000
vt 0.000000 1.000000
vt 0.500000 1.000000
s 0
f 45/45/10 46/46/10 48/48/10 47/47/10
o Plane.014
v 2.000000 0.000000 -2.000000
v 4.000000 0.000000 -2.000000
v 2.000000 0.000000 -4.000000
v 4.000000 0.000000 -4.000000
vn -0.0000 1.0000 -0.0000
vt 0.000000 0.500000
vt 0.500000 0.500000
vt 0.000000 1.000000
vt 0.500000 1.000000
s 0
f 49/49/11 50/50/11 52/52/11 51/51/11
o Plane.016
v -4.000000 0.000000 -2.000000
v -2.000000 0.000000 -2.000000
v -4.000000 0.000000 -4.000000
v -2.000000 0.000000 -4.000000
vn -0.0000 1.0000 -0.0000
vt 0.000000 0.500000
vt 0.500000 0.500000
vt 0.000000 1.000000
vt 0.500000 1.000000
s 0
f 53/53/12 54/54/12 56/56/12 55/55/12
o Plane.002
v 0.000000 0.000000 -2.000000
v 2.000000 0.000000 -2.000000
v 0.000000 2.000000 -2.000000
v 2.000000 2.000000 -2.000000
vn -0.0000 -0.0000 -1.0000
vt -0.000000 0.000000
vt 0.500000 0.000000
vt -0.000000 0.500000
vt 0.500000 0.500000
s 0
f 57/57/13 59/59/13 60/60/13 58/58/13
o Plane.003
v 0.000000 2.000000 -2.000000
v 2.000000 2.000000 -2.000000
v 0.000000 4.000000 -2.000000
v 2.000000 4.000000 -2.000000
vn -0.0000 -0.0000 -1.0000
vt -0.000000 0.000000
vt 0.500000 0.000000
vt -0.000000 0.500000
vt 0.500000 0.500000
s 0
f 61/61/14 63/63/14 64/64/14 62/62/14
o Plane.004
v 2.000000 0.000000 -2.000000
v 4.000000 0.000000 -2.000000
v 2.000000 2.000000 -2.000000
v 4.000000 2.000000 -2.000000
vn -0.0000 -0.0000 -1.0000
vt -0.000000 0.000000
vt 0.500000 0.000000
vt -0.000000 0.500000
vt 0.500000 0.500000
s 0
f 65/65/15 67/67/15 68/68/15 66/66/15
o Plane.015
v 2.000000 2.000000 -2.000000
v 4.000000 2.000000 -2.000000
v 2.000000 4.000000 -2.000000
v 4.000000 4.000000 -2.000000
vn -0.0000 -0.0000 -1.0000
vt -0.000000 0.000000
vt 0.500000 0.000000
vt -0.000000 0.500000
vt 0.500000 0.500000
s 0
f 69/69/16 71/71/16 72/72/16 70/70/16
o Plane.017
v -4.000000 0.000000 -2.000000
v -2.000000 0.000000 -2.000000
v -4.000000 2.000000 -2.000000
v -2.000000 2.000000 -2.000000
vn -0.0000 -0.0000 -1.0000
vt -0.000000 0.000000
vt 0.500000 0.000000
vt -0.000000 0.500000
vt 0.500000 0.500000
s 0
f 73/73/17 75/75/17 76/76/17 74/74/17
o Plane.018
v -4.000000 2.000000 -2.000000
v -2.000000 2.000000 -2.000000
v -4.000000 4.000000 -2.000000
v -2.000000 4.000000 -2.000000
vn -0.0000 -0.0000 -1.0000
vt -0.000000 0.000000
vt 0.500000 0.000000
vt -0.000000 0.500000
vt 0.500000 0.500000
s 0
f 77/77/18 79/79/18 80/80/18 78/78/18
o Plane.019
v -2.000000 0.000000 -2.000000
v 0.000000 0.000000 -2.000000
v -2.000000 2.000000 -2.000000
v 0.000000 2.000000 -2.000000
vn -0.0000 -0.0000 -1.0000
vt -0.000000 0.000000
vt 0.500000 0.000000
vt -0.000000 0.500000
vt 0.500000 0.500000
s 0
f 81/81/19 83/83/19 84/84/19 82/82/19
o Plane.020
v -2.000000 2.000000 -2.000000
v 0.000000 2.000000 -2.000000
v -2.000000 4.000000 -2.000000
v 0.000000 4.000000 -2.000000
vn -0.0000 -0.0000 -1.0000
vt -0.000000 0.000000
vt 0.500000 0.000000
vt -0.000000 0.500000
vt 0.500000 0.500000
s 0
f 85/85/20 87/87/20 88/88/20 86/86/20
